<svg data-name="Your Icons" viewBox="0 0 48 48" xmlns="http://www.w3.org/2000/svg"><path d="M11.75 36h20a4 4 0 0 0 4-4H36a4 4 0 0 0 4-4V16a4 4 0 0 0-4-4H16a4 4 0 0 0-4 4h-.25a4 4 0 0 0-4 4v12a4 4 0 0 0 4 4Zm22-12h-24v-2h24ZM16 14h20a2 2 0 0 1 2 2v12a2 2 0 0 1-2 2h-.25V20a4 4 0 0 0-4-4H14a2 2 0 0 1 2-2Zm-4.25 4h20a2 2 0 0 1 2 2h-24a2 2 0 0 1 2-2Zm22 8v6a2 2 0 0 1-2 2h-20a2 2 0 0 1-2-2v-6Z" fill="#f25f3a" class="fill-939598"></path><path d="M24.5 31h6a1 1 0 0 0 0-2h-6a1 1 0 0 0 0 2Z" fill="#f25f3a" class="fill-939598"></path></svg>