<svg viewBox="0 0 4000 4000" xml:space="preserve" xmlns="http://www.w3.org/2000/svg" xmlns:xlink="http://www.w3.org/1999/xlink"><path d="M1925.4 2787c-22 5.2-52.7 19.4-84.1 40.1-27.9 18.4-50.9 38.3-65.1 55.4l-87.6-136.5 163.1-86.9 73.7 127.9z" stroke="#24245b" stroke-width="8.3333" stroke-linecap="round" stroke-linejoin="round" stroke-miterlimit="12.5" fill="#f25f3a" fill-rule="evenodd" clip-rule="evenodd" class="fill-ffffff stroke-24245b"></path><path d="m1108.8 3015.5 238.3-48.9-58.5-784.8 473.1 735.5 193.9-127.9-504.6-896.7-404.6-59s-75.7 138.8-62.3 295.5c13.4 156.7 124.7 886.3 124.7 886.3z" fill="#24245b" fill-rule="evenodd" clip-rule="evenodd" class="fill-24245b"></path><defs><path d="m1108.8 3015.5 238.3-48.9-58.5-784.8 473.1 735.5 193.9-127.9-504.6-896.7-404.6-59s-75.7 138.8-62.3 295.5c13.4 156.7 124.7 886.3 124.7 886.3z" id="a"></path></defs><clipPath id="b"><use overflow="visible" xlink:href="#a"></use></clipPath><g clip-path="url(#b)"><path clip-rule="evenodd" d="M1011.4 1871.8s167.8 113.5 424.5 86.2l-6.7-45.5-417.8-102.3v61.6z" fill="#172641" fill-rule="evenodd" class="fill-172641"></path></g><path d="m1288.5 2181.8-4.8-69.1 76.2 180.2-71.4-111.1zm-73.8-745.9c-33.2-25.1-63.6-53.6-90-86.7 44.3-116.5 110.1-132.5 159-162.3-50.2 18.9-115.2 12.4-183 132.3 0 0-27.7-36.7-33.1-55.1 135.4-180.3 337.1-71.1 456.3-195.6 63.6-66.4 115.9-104.8 163-99.3 61.6 7.2 122.1 45.6 151.8 117.7 4.8 11.5 5.6 24.2 2.5 36.3-6.9 26-24.3 74.6-63.6 112.5 0 0-50.3 4-26 134.6 23.5 126.6-23.3 127-23.3 127l-513.6-61.4z" fill="#24245b" fill-rule="evenodd" clip-rule="evenodd" class="fill-24245b"></path><path d="M1011.4 1853.4s177.2 100.3 457.6 71.4l37.2-6.8 170.3-338.2c.6-16.3 98.6-63.5 119.5-110 0 0-67.9-122.3-134.3-184-113.6-105.6-344.3-87.7-422.3 21.6.1.1-82.3 115.1-228 546z" fill="#ffebe2" fill-rule="evenodd" clip-rule="evenodd" class="fill-ffebe2"></path><defs><path d="M1011.4 1853.4s177.2 100.3 457.6 71.4l37.2-6.8 170.3-338.2c.6-16.3 98.6-63.5 119.5-110 0 0-67.9-122.3-134.3-184-113.6-105.6-344.3-87.7-422.3 21.6.1.1-82.3 115.1-228 546z" id="c"></path></defs><clipPath id="d"><use overflow="visible" xlink:href="#c"></use></clipPath><g clip-path="url(#d)"><path d="M1251 1426.9c-14.8 160.5 81.7 445.2 147.8 459.3l42.7 22.1 45-28.4-134.9-355s-97.3-133.8-100.6-98z" fill="#031c5f" fill-rule="evenodd" clip-rule="evenodd" class="fill-031c5f"></path></g><path clip-rule="evenodd" d="M2767.9 1579.8h-1412s134.8 961 161.4 1150.9c2.6 18.6 18.5 32.4 37.2 32.4h1253.4c31.7 0 61.9-13.7 82.7-37.7 20.8-23.9 30.2-55.7 25.8-87.1-42.7-304-148.5-1058.5-148.5-1058.5z" fill="#006cff" fill-rule="evenodd" class="fill-006cff"></path><path clip-rule="evenodd" d="M1647.2 1579.8s58.8 116.7 129.8 179.9l47.7-.8-125.4-179.1c-16-10.5-33.6-8.7-52.1 0z" fill="#011e61" fill-rule="evenodd" class="fill-011e61"></path><path d="m1786.2 1476.6 109.7 170.1 190.4-66.9s14.7-56.4 79.4-71.2c11.5-2.6 27.8 11.3 25.9 24.7 0 0 8.9-4.5 19.4-13 11.4-9.2 26.6 0 26.6 0s4.4-4.3 9.6-12.1c11.8-17.7 37.6-2.9 29.3 12.1-6.9 12.5-7 12-7 12s22.9 19.9-36.6 83.7c-30.8 33-188.4 117.1-237.1 141.6l-132.4 70.1s-77.6-55.3-185.6-248.5" fill="#f99382" fill-rule="evenodd" clip-rule="evenodd" class="fill-f99382"></path><path d="M1796 1469.9s-29.4 61.8-118 110c-5.9 1.1-16 1.2-30.8 0l30.6-94.8" fill="#ffebe2" fill-rule="evenodd" clip-rule="evenodd" class="fill-ffebe2"></path><defs><path d="M1796 1469.9s-29.4 61.8-118 110c-5.9 1.1-16 1.2-30.8 0l30.6-94.8" id="e"></path></defs><clipPath id="f"><use overflow="visible" xlink:href="#e"></use></clipPath><g clip-path="url(#f)"><path d="M1677.7 1485c-3.8 32-4.6 63.7.3 94.8-9.1 8.3-19.4 8.3-30.8 0-7.9-35.3 2.5-66.8 30.5-94.8z" fill="#031c5f" fill-rule="evenodd" clip-rule="evenodd" class="fill-031c5f"></path></g><path clip-rule="evenodd" d="M3070 1791.9c1.7-11.8-1.9-23.8-9.8-32.9-7.8-9-19.2-14.2-31.2-14.2H1700.8c-20.8 0-38.4 15.3-41.3 36-22.3 159.9-112.5 805.4-133 952.4-1.1 7.5 1.2 15.1 6.2 20.9 5 5.7 12.2 9 19.8 9h1334.7c27 0 49.9-19.9 53.6-46.6 23.8-169.8 105.3-754 129.2-924.6z" fill="#aec6f8" fill-rule="evenodd" class="fill-aec6f8"></path><path d="m1442.4 1484.6 57.5 209.4 212-84.5 45-56.7c9.5-11.9 24-18.8 39.2-18.5 19.5.3 43.6.8 43.6.8l11.9-12.6s25 6.5 15.2 31.4c0 0 14.6 14.3-3.6 40.1 0 0 13.2 35.8-38.7 78.7-34.9 28.8-190.9 117.9-289.4 173.3-25.6 14.4-55.8 18-84 10-28.2-8-52.1-26.8-66.4-52.5-30.1-54.3-66.7-140.1-102.6-274 96.7-35.6 160.3-44.9 160.3-44.9z" fill="#f99382" fill-rule="evenodd" clip-rule="evenodd" class="fill-f99382"></path><path d="m1440 1383.1 29 122.5c-46.9 25.9-145.5 55.8-194.8 55.5 0 0-29.8-100.9-21.9-195" fill="#ffebe2" fill-rule="evenodd" clip-rule="evenodd" class="fill-ffebe2"></path><path d="M1588.5 1138.8s-38.9 46.5-82.1 78.7c0 0-33.8 38 4.7 93.5 46.5 67 100.6 39.3 108.9 6l47.1-64.8-78.6-113.4z" fill="#f99382" fill-rule="evenodd" clip-rule="evenodd" class="fill-f99382"></path><defs><path d="M1588.5 1138.8s-38.9 46.5-82.1 78.7c0 0-33.8 38 4.7 93.5 46.5 67 100.6 39.3 108.9 6l47.1-64.8-78.6-113.4z" id="g"></path></defs><clipPath id="h"><use overflow="visible" xlink:href="#g"></use></clipPath><g clip-path="url(#h)"><path d="M1559.9 1244.7s4.6 58.2 61.6 70.2l-3.2 37.2-27.5 8.8-10.9-9.2s-36.7-36.7-20-107z" fill="#24245b" fill-rule="evenodd" clip-rule="evenodd" class="fill-24245b"></path></g><path d="M1577.9 1150.9c6.7-13.5 15.2-26.8 25.3-39.6 53.7-67.3 134.7-91.9 180.9-55.1 46.2 36.8 40 121.3-13.6 188.6-43.9 55.1-106.2 81.6-152.7 69.2" fill="#f99382" fill-rule="evenodd" clip-rule="evenodd" class="fill-f99382"></path><path d="M1889.4 1237.8c1.1-1 2.6-1.4 4-1.1 1.4.3 2.6 1.3 3.2 2.7 4.9 7.6 15.3 20.3 21.5 26.5 1 .7 1.6 1.9 1.6 3.1 0 1.3-.7 2.4-1.8 3-7.4 4.5-23.1 11.6-32.5-1-9.6-12.6-2.7-26.6 4-33.2z" fill="#f25f3a" fill-rule="evenodd" clip-rule="evenodd" class="fill-ffffff"></path><path d="M1646.6 1094.6c-36.3-28.4-18.3-78.9-18.3-78.9s38.3-70.1 117.1-29.5c78.8 40.5 79.8 118.8 79.8 118.8s-85.5 62.3-178.6-10.4z" fill="#24245b" fill-rule="evenodd" clip-rule="evenodd" class="fill-24245b"></path><path d="M1646.5 1095.9c1.7-22.7-26.7-53.7-61-31.6-42.3 27.2-17.8 84.5-5.7 90.9" fill="#f99382" fill-rule="evenodd" clip-rule="evenodd" class="fill-f99382"></path><path d="M1670.8 1232.9s6.4 27 25.2 42.2c2.8 2.2-20.8 18.1-32.7 3.2-18.1-22.8 1.1-43 7.5-45.4z" fill="#f25f3a" fill-rule="evenodd" clip-rule="evenodd" class="fill-ffffff"></path><path d="M1776 1212.3c-2.7-3-8-1.7-12 2.9-3.9 4.6-4.9 10.8-2.3 13.8 2.7 3 8 1.7 12-2.9 3.9-4.7 5-10.8 2.3-13.8zm-52.2-41.9c-2.7-3-8-1.7-12 2.9-3.9 4.6-4.9 10.8-2.3 13.8 2.7 3 8 1.7 12-2.9s5-10.8 2.3-13.8zM1670.3 944c3.9 2.4 8.8 2.7 13 .9 4.2-1.8 7.3-5.7 8.2-10.2 7.6-39.8 20.6-131-18.4-143.8-34-11.2-69.2 34.6-60.9 78.3 7.3 38 38.2 62.6 58.1 74.8z" fill="#24245b" fill-rule="evenodd" clip-rule="evenodd" class="fill-24245b"></path><path d="m2752.1 1120.9-181.7-150.3-199 240.6 181.7 150.3 199-240.6zm165.2 405.2-131.8-215.9-280.8 171.5 131.8 215.9 280.8-171.5z" fill="#ffebe2" fill-rule="evenodd" clip-rule="evenodd" class="fill-ffebe2"></path><path d="m3067.7 1290.9-144-187.1-247.8 190.7 144 187.1 247.8-190.7z" fill="#ffebe2" fill-rule="evenodd" clip-rule="evenodd" class="fill-ffebe2"></path><path d="m2729.6 1448.5-26.6 116.1m71.4-44.7-116.1-26.6m224.5-251.1-13.6 99m56.3-42.7-99-13.6M2557.3 1111.7l10.9 108.5m48.7-59.7-108.5 10.9" fill="none" stroke="#24245b" stroke-width="16.6667" stroke-linecap="round" stroke-linejoin="round" stroke-miterlimit="12.5" class="stroke-24245b"></path><path d="M1683.3 1189.6c6.7 5.2 9.4 13.1 5.9 17.6-3.5 4.5-11.8 3.9-18.5-1.3-6.7-5.2-9.4-13.1-5.9-17.5 3.5-4.6 11.8-4 18.5 1.2z" fill="#f99382" fill-rule="evenodd" clip-rule="evenodd" class="fill-f99382"></path><path d="M1130.8 2978.4c11 16.7 14.4 36.2 8.7 58.8-17.5-4.6-29-12.6-31.2-23.4-2.2-11.3 6.4-23.9 22.5-35.4zm179.3-36.5c14.9 3.1 26.1 8.4 32.1 15.6-14.3 11.7-27.4 8.9-28.5 4.6-7.6-5.6-7.7-12.5-3.6-20.2zm466.1-59.4c17.9 4.5 28 15.3 23.9 37.2-19.2 5.7-33.2 5.7-37.9-1.4-4.7-7.2.9-20.3 14-35.8zm149.2-95.5c15.5-3.7 26.7-2.9 30.8 3.3 4.3 6.5 0 18-10.6 31.7-16.9-6-22.9-18.1-20.2-35z" fill-rule="evenodd" clip-rule="evenodd" fill="#c57dba" class="fill-c57dba"></path><path d="M1357.1 2958.1c41.9.6 102.6 14.4 128.3 83.9l-322.3 154.8-32.4-218.4c19.9-14.3 51.2-27.1 87.6-34.3 35.2-7 68.1-7.4 91.8-2.2l3.6 20.2s18.3-4.4 43.4-4z" fill="#24245b" fill-rule="evenodd" clip-rule="evenodd" class="fill-24245b"></path><defs><path d="M1357.1 2958.1c41.9.6 102.6 14.4 128.3 83.9l-322.3 154.8-32.4-218.4c19.9-14.3 51.2-27.1 87.6-34.3 35.2-7 68.1-7.4 91.8-2.2l3.6 20.2s18.3-4.4 43.4-4z" id="i"></path></defs><clipPath id="j"><use overflow="visible" xlink:href="#i"></use></clipPath><g clip-path="url(#j)"><path d="M1313.7 2962.1c-27-10.3-158.3 14.4-174.2 75.1l-31.5-66.5s80.2-84.5 219.4-48.7c0 .1-13.7 39.8-13.7 40.1z" fill="#24245b" fill-rule="evenodd" clip-rule="evenodd" class="fill-24245b"></path></g><path d="M1776.2 2882.5c14.2-17 37.2-36.9 65.1-55.4 31.4-20.7 62.1-34.9 84.1-40.1l20.2 35c134-65.8 187.1 31.6 187.1 31.6l-264.2 172.7-92.3-143.8z" fill="#24245b" fill-rule="evenodd" clip-rule="evenodd" class="fill-24245b"></path><defs><path d="M1776.2 2882.5c14.2-17 37.2-36.9 65.1-55.4 31.4-20.7 62.1-34.9 84.1-40.1l20.2 35c134-65.8 187.1 31.6 187.1 31.6l-264.2 172.7-92.3-143.8z" id="k"></path></defs><clipPath id="l"><use overflow="visible" xlink:href="#k"></use></clipPath><g clip-path="url(#l)"><path d="M1935.1 2803.8c-25.3.2-121.3 57.6-139.2 109.5l-38.4-28.4s47.1-89.9 171.2-113.4c.1-.1 6 30.3 6.4 32.3z" fill="#24245b" fill-rule="evenodd" clip-rule="evenodd" class="fill-24245b"></path></g><path d="M1930.7 2790.4s-49.2 8-113.9 59.7m-639.7 110.6s67.2-30.1 137.4-13.3" fill="none" stroke="#c57dba" stroke-width="8.3333" stroke-linecap="round" stroke-linejoin="round" stroke-miterlimit="12.5" class="stroke-c57dba"></path><path d="M1301.7 3075.6c88.1-45.4 169.8-62.5 182.3-38.2 12.5 24.3-48.8 80.9-136.9 126.2-88.1 45.4-169.8 62.5-182.3 38.2-12.5-24.3 48.8-80.9 136.9-126.2zm681.7-161.5c72.8-48 140-74.8 149.8-59.8 9.9 15-41.2 66.2-114 114.2s-140 74.8-149.8 59.8c-9.9-15 41.2-66.2 114-114.2z" fill-rule="evenodd" clip-rule="evenodd" fill="#c57dba" class="fill-c57dba"></path><path d="M1942.6 2818.8s-27.9 15.1-49 36.1m-579 102.6s-30.1 4.8-73.2 27.4" fill="none" stroke="#c57dba" stroke-width="8.3333" stroke-linecap="round" stroke-linejoin="round" stroke-miterlimit="12.5" class="stroke-c57dba"></path><path d="M1911.4 1364.1c39.4-49.5 87.8-76.6 108.1-60.4 20.3 16.2 4.8 69.4-34.6 118.9s-87.8 76.6-108.1 60.4c-20.3-16.2-4.8-69.4 34.6-118.9z" stroke="#24245b" stroke-width="8.3333" stroke-linecap="round" stroke-linejoin="round" stroke-miterlimit="12.5" fill="#f25f3a" fill-rule="evenodd" clip-rule="evenodd" class="fill-ffffff stroke-24245b"></path><path d="m1878.8 1484.4-65.9 76.7m83 85.7 8.5 13.3m333.1-139.7s-27.4 29.2-41.5 39.5c-14 10.3-33.1 20-33.1 20m28.7-46.6c-18 8.8-32.9 15.7-50.9 22.5m128.6-23.4s-11.5-11.1-25.4 12.3c-13.9 23.3-25.7 38.5-25.7 38.5s-21.9 15.3-48.5 26.3m-306.3 6.6s-1.4 29.2-38.7 56.5l-85.3 55.5m41.7-173.7s-71.5 55.4-107.2 70.3m189.5-30.8s-17.7 26.6-36.2 44.4m40.3-83.9s-25.1 32.9-51.1 54.6m12.2-66.2s-16.6 23-47.5 43.6m-346.6-64.6s21.7-8.2 34.6-16.2l-29-122.5m56.5 298.8 9.3 32.6m242-552.3s-12.9-24.9-43.4-12.8m47.1 48.4s-14.5 26.2-22.2 40.1c-1.2 2.2-3.3 3.8-5.7 4.5-2.5.6-5 .2-7.2-1.1-1.3-.8-2.2-1.4-2.2-1.4m80.6-32.8s-2.6-14.2-17.4-20.2m-154.9-96.9s-16.9 12.5-21.1 41.4m-5.9-46.1s-.5 13.7 10.7 28.3M2871.8 1618l169.2-101.1m-744.8 180.7 107.1-68.7m-256.6-204.3 96.1-131.5" stroke="#24245b" fill="none" stroke-width="8.3333" stroke-linecap="round" stroke-linejoin="round" stroke-miterlimit="12.5" class="stroke-24245b"></path></svg>