<svg viewBox="0 0 64 64" xml:space="preserve" xmlns="http://www.w3.org/2000/svg" enable-background="new 0 0 64 64"><path d="M-322-458.5h-2.8v-7.1c0-.8-.6-1.4-1.4-1.4h-39.5c-.8 0-1.4.6-1.4 1.4v7.1h-2.8v-7.1c0-2.3 1.9-4.2 4.2-4.2h39.5c2.3 0 4.2 1.9 4.2 4.2v7.1M-329.1-430.2H-363c-2.3 0-4.2-1.9-4.2-4.2v-24h2.8v24c0 .8.6 1.4 1.4 1.4h33.9c.8 0 1.4-.6 1.4-1.4v-24h2.8v24c.1 2.3-1.8 4.2-4.2 4.2" transform="translate(378 482)" fill="#4b5563" class="fill-134563"></path><path d="M-340.4-450h-11.3c-.8 0-1.4-.6-1.4-1.4s.6-1.4 1.4-1.4h11.3c.8 0 1.4.6 1.4 1.4s-.6 1.4-1.4 1.4M-370-461.3h48v2.8h-48z" transform="translate(378 482)" fill="#4b5563" class="fill-134563"></path></svg>