<?xml version="1.0" ?><svg viewBox="0 0 1000 1000" xmlns="http://www.w3.org/2000/svg"><path d="m566.93 283.38a69.56 69.56 0 0 1 -89.32 18.22c-24.89-14-38.46-41.34-54.62-64.9-3.54-5.16-8.14-10.69-14.39-10.9-6.62-.22-11.68 5.6-15.67 10.89-5.57 7.38-11.41 15.89-10 25 .73 4.93 3.55 9.45 3.76 14.43.3 7.09-4.6 13.16-8.43 19.13-7.38 11.5-11.2 27.23-3.45 38.47 4.4 6.37 12 10.54 14.59 17.84 2.76 7.82-1.25 16.59.54 24.69a18.13 18.13 0 0 0 18.21 13.75c2.23-.14 4.5-.71 6.66-.16 3.93 1 6 5.13 8.22 8.53a35.85 35.85 0 0 0 55 6.12c4-3.92 7.39-9 12.69-10.83 3-1.06 6.25-.94 9.43-1a69.87 69.87 0 0 0 55.59-31.24"/><path d="m566.14 282.59a68.37 68.37 0 0 1 -80.23 21.41 75.37 75.37 0 0 1 -23.53-15.85c-13.52-13.06-23-29.55-33.22-45.17a122.55 122.55 0 0 0 -7.9-11.37c-2.76-3.35-6.36-6.52-10.77-7.28-9.91-1.72-16.71 8.12-21.67 15.13-3 4.19-5.7 8.71-7 13.71s-.66 9.89 1.05 14.8a33.3 33.3 0 0 1 2.06 7.36 15.34 15.34 0 0 1 -1 7.06c-1.74 4.7-5 8.67-7.62 12.9-4.89 7.9-8.24 17.56-7.31 27a26.35 26.35 0 0 0 4.55 12.7c2.59 3.63 6 6.49 9.06 9.67s5.68 7 6 11.76c.37 5.26-1 10.45-.89 15.7a19.82 19.82 0 0 0 4.58 12.68 19.44 19.44 0 0 0 17.69 6.9c2.38-.26 4.69-.47 6.66 1.13a19.12 19.12 0 0 1 3.79 4.88 46.8 46.8 0 0 0 3.95 5.54 37.7 37.7 0 0 0 51.26 5.92c3.89-2.89 6.79-6.65 10.29-10a15.67 15.67 0 0 1 5.4-3.59 25.29 25.29 0 0 1 8-.92 72.58 72.58 0 0 0 50-21.65 68.79 68.79 0 0 0 8.45-10.5c1.56-2.39-2.26-4.6-3.8-2.23a68.06 68.06 0 0 1 -43.47 29.18 92 92 0 0 1 -13.87 1.25 20.75 20.75 0 0 0 -7.85 1.65 21.28 21.28 0 0 0 -5.61 4c-3.32 3.16-6 6.89-9.77 9.62a35.18 35.18 0 0 1 -12.55 5.81 34.16 34.16 0 0 1 -35.7-13.72c-2.32-3.39-4.26-7.63-8.2-9.42-2.39-1.09-4.83-.88-7.37-.6a16.22 16.22 0 0 1 -6.43-.42 16.78 16.78 0 0 1 -9.64-7.34c-5.33-8.78.75-19.38-2.25-28.73-2.77-8.6-11.6-12.72-15.94-20.26-4.59-8-3.37-17.82-.2-26.07a65.67 65.67 0 0 1 6.86-12.55c2.64-4 5.38-8.25 6.14-13.07.83-5.21-1.16-9.72-2.68-14.59a20.36 20.36 0 0 1 .84-14.47c1.93-4.6 4.91-8.71 7.89-12.67 2.67-3.56 5.66-7.34 9.74-9.34 9-4.44 15.61 5.91 19.83 12.21 10.27 15.3 19.47 31.53 32 45.14a86.05 86.05 0 0 0 21.1 17 72.22 72.22 0 0 0 28.79 8.72 70.77 70.77 0 0 0 62.25-27.7c.77-1-1-2.35-1.75-1.35z"/><path d="m390.81 245.9c-4-6-9-14.2-9.26-21.39a6.15 6.15 0 0 1 .87-4.08c.87-1.12 2.83-1.46 3.65-.3.44-2 1.44-4.14 3.31-5.09s4.65-.13 5.1 1.91a4 4 0 1 1 7.84-1.9c-.42-2.25 1.83-4.38 4.11-4.38a6.65 6.65 0 0 1 5.46 3.62 19.58 19.58 0 0 1 1.91 6.55l1.17 6.88c.79 4.69 1.53 9.75-.57 14-2.42 4.93-8.08 7.47-13.53 8.13-3.85.46-8.6-.37-10.06-4" fill="#fff"/><path d="m391.63 245.42a68.78 68.78 0 0 1 -7.14-13.14 25.58 25.58 0 0 1 -1.69-6.84 8.62 8.62 0 0 1 .19-3.54c.31-.84 1.43-1.84 2.22-.9a1.23 1.23 0 0 0 2-.54c.38-1.62 1.1-3.62 2.76-4.35 1.15-.5 2.88-.16 3.25 1.18a1.27 1.27 0 0 0 2.44-.68 2.92 2.92 0 0 1 1.91-3.36 2.87 2.87 0 0 1 3.44 2.15c.36 1.39 2.76 1.15 2.58-.35a2.83 2.83 0 0 1 3.5-3c1.94.39 3.31 2.16 4 3.88a32.39 32.39 0 0 1 1.54 7c.41 2.43.86 4.87 1.22 7.31.64 4.27.88 9.1-2 12.68-2.35 3-6.05 4.53-9.67 5.25s-8.38.68-10.35-2.94a1.29 1.29 0 0 0 -2.35 1c1.56 4.56 7.07 5.54 11.3 5 4.68-.53 9.59-2.31 12.79-5.91 3.95-4.46 3.88-10.33 3.06-15.89-.47-3.16-1-6.32-1.59-9.46-.48-2.7-1.11-5.45-2.85-7.64s-4.49-3.64-7.22-2.88a5.36 5.36 0 0 0 -4 5.89l2.53-.7a5.32 5.32 0 1 0 -10.32 2.59l2.44-.68a4.8 4.8 0 0 0 -5.8-3.08c-2.88.68-4.41 3.63-5 6.28l2.05-.54c-1.79-2.1-5-.87-6 1.34-1.21 2.63-.49 6.11.24 8.77 1.7 6.18 5.24 11.77 8.84 17 .68 1 2.3.07 1.63-1z"/><path d="m467.81 198.16.63-5.66a3 3 0 0 0 -.07-1.41 4.57 4.57 0 0 0 -1.28-1.39 4 4 0 0 1 -1.18-3 1.27 1.27 0 0 1 .48-1.07 1.46 1.46 0 0 1 .72-.16 27.73 27.73 0 0 1 6.74.59 2.25 2.25 0 0 1 1.72 1 1.66 1.66 0 0 1 0 1.12c-.51 1.66-2.36 2.49-4.05 2.87a1.54 1.54 0 0 0 -.82.36 1.61 1.61 0 0 0 -.27.63c-.53 2.25-1 4.53-1.27 6.81"/><path d="m468.72 198.42c.23-1.31.45-2.62.64-3.94s.61-2.68.17-3.9-1.54-1.53-2-2.55a2.38 2.38 0 0 1 -.26-1.11v-.21l.05-.17-.23.27c-.05.08-.4 0 0 0h.65a25.84 25.84 0 0 1 3.93.24 17.23 17.23 0 0 1 1.88.34 4.5 4.5 0 0 0 .6.17s.23.17.14 0-.05.3-.11.45a2 2 0 0 1 -.2.31 2.92 2.92 0 0 1 -1 .79c-.86.47-1.91.48-2.75 1-1.25.73-1.34 2.59-1.6 3.87-.31 1.51-.57 3-.78 4.55a1.42 1.42 0 0 0 .95 1.68 1.39 1.39 0 0 0 1.69-.95q.31-2.29.78-4.56c.07-.37.15-.75.24-1.13a4.89 4.89 0 0 0 .25-1.12s.07-.16 0-.17-.49.22-.08.17a5.51 5.51 0 0 0 .91-.23 7.24 7.24 0 0 0 3.19-1.8 3.65 3.65 0 0 0 .94-4c-.64-1.25-2-1.59-3.31-1.82a29.35 29.35 0 0 0 -4.77-.5c-1.49 0-3.29-.11-3.91 1.56a4.8 4.8 0 0 0 .55 3.9 6.94 6.94 0 0 0 1.43 1.58c.14.13.41.32.49.51a2.6 2.6 0 0 1 0 1.11c-.13 1.8-.26 3.6-.35 5.4-.05 1.05 1.67 1.31 1.86.26z"/><path d="m485.2 197.11.63-5.66a2.8 2.8 0 0 0 -.07-1.41 4.57 4.57 0 0 0 -1.28-1.39 4 4 0 0 1 -1.18-3 1.27 1.27 0 0 1 .48-1.07 1.46 1.46 0 0 1 .72-.16 26.77 26.77 0 0 1 6.74.59 2.22 2.22 0 0 1 1.72 1 1.66 1.66 0 0 1 0 1.12c-.51 1.66-2.36 2.49-4.05 2.87a1.4 1.4 0 0 0 -.82.36 1.55 1.55 0 0 0 -.27.63c-.53 2.25-1 4.52-1.27 6.81"/><path d="m486.11 197.36c.23-1.31.45-2.62.64-3.93s.61-2.68.17-3.9-1.54-1.54-2-2.55a2.42 2.42 0 0 1 -.26-1.12v-.2l.05-.17-.23.26c0 .09-.4 0 0 0a4.71 4.71 0 0 0 .65 0 27.2 27.2 0 0 1 3.93.24c.63.09 1.26.2 1.88.35.2 0 .41.15.6.17 0 0 .23.16.14 0s-.05.3-.11.44a2.14 2.14 0 0 1 -.2.32 2.92 2.92 0 0 1 -1 .79c-.86.47-1.91.48-2.75 1-1.25.73-1.34 2.58-1.6 3.86q-.47 2.26-.78 4.56a1.42 1.42 0 0 0 .95 1.68 1.39 1.39 0 0 0 1.69-1c.21-1.52.47-3 .78-4.55.07-.38.15-.75.24-1.13a4.89 4.89 0 0 0 .25-1.12s.07-.16 0-.17-.49.22-.08.17a5.53 5.53 0 0 0 .91-.24 7.23 7.23 0 0 0 3.19-1.79 3.65 3.65 0 0 0 .94-4c-.64-1.25-2-1.59-3.31-1.82a28.28 28.28 0 0 0 -4.77-.5c-1.49 0-3.29-.11-3.91 1.56a4.77 4.77 0 0 0 .55 3.89 7 7 0 0 0 1.43 1.59c.14.13.41.32.49.51a2.6 2.6 0 0 1 0 1.11c-.13 1.8-.26 3.6-.35 5.4-.05 1 1.67 1.31 1.86.25z"/><path d="m450.42 190.47.63-5.66a3 3 0 0 0 -.07-1.41 4.57 4.57 0 0 0 -1.28-1.4 4 4 0 0 1 -1.18-3 1.27 1.27 0 0 1 .48-1 1.46 1.46 0 0 1 .72-.16 26.77 26.77 0 0 1 6.74.59 2.22 2.22 0 0 1 1.72 1 1.66 1.66 0 0 1 0 1.12c-.51 1.66-2.36 2.49-4.05 2.87a1.4 1.4 0 0 0 -.82.36 1.55 1.55 0 0 0 -.27.63c-.53 2.25-1 4.52-1.27 6.81"/><path d="m451.33 190.72c.23-1.31.45-2.62.64-3.93s.61-2.68.17-3.9-1.54-1.54-2-2.55a2.42 2.42 0 0 1 -.26-1.12v-.22l.05-.17-.23.26c-.05.09-.4 0 0 0a4.71 4.71 0 0 0 .65 0 27.2 27.2 0 0 1 3.93.24c.63.09 1.26.2 1.88.35.19 0 .41.15.6.17 0 0 .23.16.14 0s-.05.3-.11.44a2.14 2.14 0 0 1 -.2.32 2.92 2.92 0 0 1 -1 .79c-.86.47-1.91.48-2.75 1-1.25.73-1.34 2.58-1.6 3.86q-.47 2.27-.78 4.56a1.42 1.42 0 0 0 1 1.68 1.39 1.39 0 0 0 1.69-1c.21-1.52.47-3 .78-4.55.07-.38.15-.75.24-1.13a4.89 4.89 0 0 0 .25-1.12s.07-.16 0-.17-.49.22-.08.17a5.53 5.53 0 0 0 .91-.24 7.23 7.23 0 0 0 3.19-1.79 3.65 3.65 0 0 0 .94-4c-.64-1.25-2-1.59-3.31-1.82a28.28 28.28 0 0 0 -4.77-.5c-1.49 0-3.29-.11-3.91 1.56a4.77 4.77 0 0 0 .55 3.89 6.77 6.77 0 0 0 1.43 1.59c.14.13.41.32.49.51a2.6 2.6 0 0 1 0 1.11c-.13 1.8-.26 3.6-.35 5.4-.05 1.05 1.67 1.31 1.86.25z"/><path d="m433 187.15.63-5.66a3 3 0 0 0 -.07-1.41 4.57 4.57 0 0 0 -1.28-1.39 4 4 0 0 1 -1.18-3 1.27 1.27 0 0 1 .48-1.07 1.46 1.46 0 0 1 .72-.16 26.77 26.77 0 0 1 6.74.59 2.22 2.22 0 0 1 1.72 1 1.66 1.66 0 0 1 0 1.12c-.51 1.66-2.36 2.49-4.05 2.87a1.4 1.4 0 0 0 -.82.36 1.55 1.55 0 0 0 -.27.63c-.53 2.25-1 4.52-1.27 6.81"/><path d="m433.94 187.4c.23-1.31.45-2.62.64-3.93s.61-2.68.17-3.9-1.54-1.54-2-2.55a2.42 2.42 0 0 1 -.26-1.12v-.2-.17l-.23.26c-.05.09-.4 0 0 0a4.71 4.71 0 0 0 .65 0 27.2 27.2 0 0 1 3.93.24c.63.09 1.26.2 1.88.35.19 0 .41.15.6.17 0 0 .23.16.14 0s0 .3-.11.44a2.14 2.14 0 0 1 -.2.32 2.92 2.92 0 0 1 -1 .79c-.86.47-1.91.48-2.75 1-1.25.73-1.34 2.58-1.6 3.86q-.47 2.26-.78 4.56a1.42 1.42 0 0 0 .95 1.68 1.39 1.39 0 0 0 1.69-1c.21-1.52.47-3 .78-4.55.07-.38.15-.75.24-1.13a4.89 4.89 0 0 0 .25-1.12s.07-.16 0-.17-.49.22-.08.17a5.53 5.53 0 0 0 .91-.24 7.23 7.23 0 0 0 3.19-1.79 3.65 3.65 0 0 0 .94-4c-.64-1.25-2-1.59-3.31-1.82a28.28 28.28 0 0 0 -4.77-.5c-1.49 0-3.29-.11-3.91 1.56a4.77 4.77 0 0 0 .55 3.89 6.77 6.77 0 0 0 1.43 1.59c.14.13.41.32.49.51a2.6 2.6 0 0 1 0 1.11c-.13 1.8-.26 3.6-.35 5.4-.05 1 1.67 1.31 1.86.25z"/><path d="m415.64 183.83.63-5.66a3 3 0 0 0 -.07-1.41 4.57 4.57 0 0 0 -1.28-1.39 4 4 0 0 1 -1.18-3 1.27 1.27 0 0 1 .48-1.07 1.46 1.46 0 0 1 .72-.16 26.77 26.77 0 0 1 6.74.59 2.22 2.22 0 0 1 1.72 1 1.66 1.66 0 0 1 0 1.12c-.51 1.66-2.36 2.49-4.05 2.87a1.4 1.4 0 0 0 -.82.36 1.55 1.55 0 0 0 -.27.63c-.53 2.25-1 4.52-1.27 6.81"/><path d="m416.55 184.08c.23-1.31.45-2.62.64-3.93s.61-2.68.17-3.9-1.54-1.54-2-2.55a2.42 2.42 0 0 1 -.26-1.12v-.2-.17l-.22.26c0 .09-.4 0 0 0a4.71 4.71 0 0 0 .65 0 27.2 27.2 0 0 1 3.93.24c.63.09 1.26.2 1.88.35.19 0 .41.15.6.17 0 0 .23.16.14 0s-.05.3-.11.44a2.14 2.14 0 0 1 -.2.32 2.92 2.92 0 0 1 -1 .79c-.86.47-1.91.48-2.75 1-1.25.73-1.34 2.58-1.6 3.86q-.46 2.26-.78 4.56a1.42 1.42 0 0 0 .95 1.68 1.39 1.39 0 0 0 1.69-1c.21-1.52.47-3 .78-4.55.07-.38.15-.75.24-1.13a4.89 4.89 0 0 0 .25-1.12s.07-.16 0-.17-.49.22-.08.17a5.53 5.53 0 0 0 .91-.24 7.23 7.23 0 0 0 3.19-1.79 3.65 3.65 0 0 0 .94-4c-.64-1.25-2-1.59-3.31-1.82a28.28 28.28 0 0 0 -4.77-.5c-1.49 0-3.29-.11-3.91 1.56a4.77 4.77 0 0 0 .55 3.89 6.57 6.57 0 0 0 1.43 1.59c.14.13.41.32.49.51a2.6 2.6 0 0 1 0 1.11c-.13 1.8-.26 3.6-.35 5.4-.05 1 1.67 1.31 1.86.25z"/><path d="m398.25 180.51.63-5.66a3 3 0 0 0 -.07-1.41 4.57 4.57 0 0 0 -1.28-1.39 4 4 0 0 1 -1.18-3 1.27 1.27 0 0 1 .48-1.07 1.46 1.46 0 0 1 .72-.16 26.77 26.77 0 0 1 6.74.59 2.22 2.22 0 0 1 1.72 1 1.66 1.66 0 0 1 0 1.12c-.51 1.66-2.36 2.49-4 2.87a1.47 1.47 0 0 0 -.82.36 1.55 1.55 0 0 0 -.27.63c-.53 2.25-1 4.52-1.27 6.81"/><path d="m399.16 180.76c.23-1.31.45-2.62.64-3.93s.61-2.68.17-3.9-1.54-1.54-2-2.55a2.42 2.42 0 0 1 -.26-1.12v-.2-.17l-.22.26c-.05.09-.4 0 0 0a4.71 4.71 0 0 0 .65 0 27.2 27.2 0 0 1 3.93.24c.63.09 1.26.2 1.88.35.19 0 .41.15.6.17 0 0 .23.16.14 0s-.05.3-.11.44a2.14 2.14 0 0 1 -.2.32 2.92 2.92 0 0 1 -1 .79c-.86.47-1.91.48-2.75 1-1.25.73-1.34 2.58-1.6 3.86q-.46 2.26-.78 4.56a1.41 1.41 0 0 0 .95 1.68 1.39 1.39 0 0 0 1.69-1c.21-1.52.47-3 .78-4.55.07-.38.15-.75.24-1.13a4.89 4.89 0 0 0 .25-1.12s.07-.16 0-.17-.49.22-.08.17a5.53 5.53 0 0 0 .91-.24 7.23 7.23 0 0 0 3.19-1.79 3.65 3.65 0 0 0 .94-4c-.64-1.25-2-1.59-3.31-1.82a28.28 28.28 0 0 0 -4.77-.5c-1.49 0-3.29-.11-3.91 1.56a4.77 4.77 0 0 0 .55 3.89 6.57 6.57 0 0 0 1.43 1.59c.14.13.41.32.49.51a2.6 2.6 0 0 1 0 1.11c-.13 1.8-.26 3.6-.35 5.4-.05 1.05 1.67 1.31 1.86.25z"/><path d="m461.9 192.25a210 210 0 0 0 58.54 6.32c1.83-.06 4 0 5.12 1.4a5.46 5.46 0 0 1 .92 3.45c.09 4.85-2.91 11.17-7.61 10-1.59-.41-2.81-1.64-4.21-2.49-2.35-1.43-5.18-1.79-7.91-2.1q-43.87-5-88.05-6.46c-49-1.59-99.31.38-144.69 18.88-7.59 3.1-15.8 6.71-23.68 4.46-15.7-4.46-19.6-23.18-20.38-37.28-1.11-20.12 9-75.43 40.42-56.89 3.73 2.2 6.56 5.64 10.1 8.12a46.56 46.56 0 0 0 10.72 5.06c53.75 20 108 40.08 164.77 48.23"/><path d="m461.66 193.12a206.46 206.46 0 0 0 39.34 6.33c6.64.43 13.26.4 19.91.33 1.31 0 3.07-.06 3.89 1.18.68 1 .53 2.77.4 3.95a10.54 10.54 0 0 1 -2.58 6.09c-1.86 1.9-3.83 1.15-5.77-.23a16.68 16.68 0 0 0 -7.52-3c-6.56-1-13.21-1.54-19.8-2.19q-20.5-2.06-41.08-3.28c-26.12-1.58-52.37-2.48-78.53-1.38-25.09 1.05-50.25 4.12-74.41 11.14q-9.06 2.63-17.86 6c-5.86 2.25-11.62 5.11-17.83 6.28a19.78 19.78 0 0 1 -15-3.06 24.73 24.73 0 0 1 -7.85-9.47c-3.73-7.37-5-16-5.36-24.21a91 91 0 0 1 1.15-17.21 101.91 101.91 0 0 1 5.06-20.23c2.15-5.79 5.05-11.68 9.56-16a15.86 15.86 0 0 1 14.31-4.54 25 25 0 0 1 10.29 4.78c2.29 1.79 4.32 3.88 6.61 5.66a33.53 33.53 0 0 0 7.71 4.31c5.93 2.49 12.05 4.56 18.08 6.78q9.27 3.42 18.57 6.79c12.49 4.51 25 8.87 37.66 13 25 8.1 50.37 15.23 76.2 20.12q9.42 1.77 18.9 3.14c1.65.24 2.37-2.29.7-2.53-26.94-3.9-53.47-10.47-79.45-18.51s-51.74-17.49-77.32-27c-6-2.22-12.53-4-17.86-7.57a90.54 90.54 0 0 1 -7-5.86 30 30 0 0 0 -6.13-4c-5.81-2.78-12.31-3.59-18.21-.64-5.46 2.72-9.35 8-12.15 13.23a80.77 80.77 0 0 0 -7.11 20.22c-3.08 13.71-4 28.12-.63 41.87 2.1 8.48 6.29 17.12 14.17 21.58a23.13 23.13 0 0 0 16 2.42c6.39-1.21 12.31-4.18 18.34-6.48 24.4-9.31 50.32-14.09 76.29-16.21 26.58-2.16 53.31-1.64 79.92-.38q21.32 1 42.58 2.85 10.71.93 21.39 2.05c3.38.36 6.81.59 10.16 1.17a14.17 14.17 0 0 1 4.07 1.22c1.28.65 2.34 1.66 3.61 2.34 4.4 2.34 8.18-.95 9.75-5s1.94-10.78-3.69-11.57c-3.17-.44-6.57 0-9.77.05q-5.16 0-10.32-.22a207.22 207.22 0 0 1 -21.1-2.05q-9.93-1.49-19.71-3.84a.9.9 0 0 0 -.48 1.74z"/><path d="m566.84 592.19c-24.59 93.2-41.12 200.82-56.76 295.94-5.15 31.33-15.45 52.79-37.75 74a5.82 5.82 0 0 0 2.94 10 188.66 188.66 0 0 0 27.64 2.86c12.31.37 25.73-.88 34.82-9.2 6.25-5.71 9.49-13.91 12.53-21.81q31.41-81.69 62.84-163.37c11.18-29.08 22.52-58.88 23.14-90 .33-16.45-2.35-32.94-.64-49.3 3.5-33.52 25.21-65.38 18.63-98.44"/><path d="m565.94 591.94c-7.77 29.24-14.49 58.76-20.62 88.39-6.31 30.52-11.93 61.18-17.27 91.89-5.25 30.22-10.2 60.5-15.17 90.78-2.28 13.9-4 28-7.61 41.66a110.83 110.83 0 0 1 -25.08 47.49c-2.11 2.38-4.31 4.69-6.57 6.92-1.94 1.91-4 3.56-4.35 6.42a7.24 7.24 0 0 0 2 5.9c2.15 2.17 5.4 2.26 8.24 2.7a190.47 190.47 0 0 0 24.08 2.16c12.37.31 26.21-1.08 35.57-10.08 4.85-4.67 7.87-10.8 10.39-16.95 3-7.35 5.75-14.83 8.6-22.26l36.21-94.16 18.1-47.08c5.7-14.82 11.5-29.62 16.13-44.81 4.5-14.81 7.91-30.06 8.79-45.55 1-16.5-1.7-33-.71-49.46 1.75-28.95 17.57-54.79 20-83.6a71.86 71.86 0 0 0 -1-19.91c-.38-1.94-3.34-1.12-3 .82 5.39 28-9 54.64-15.57 81.12a117.23 117.23 0 0 0 -3.37 21.15 210.35 210.35 0 0 0 .41 24.21c.46 8 .93 16 .6 24.06a157.25 157.25 0 0 1 -2.75 23.11c-2.88 15.06-7.65 29.7-12.89 44.08-5.46 15-11.32 29.77-17 44.63l-35.46 92.15q-8.83 22.93-17.66 45.87c-2.48 6.44-5 13.1-9.53 18.46-4.31 5.15-10.23 8.29-16.67 9.92a71.06 71.06 0 0 1 -19.57 1.69 186.82 186.82 0 0 1 -24.31-2.26c-3-.48-6.64-.78-7.1-4.48-.39-3.18 2.83-5.21 4.8-7.2a134 134 0 0 0 11.58-13.28 111.64 111.64 0 0 0 16.24-30.24c4.36-12.26 6.45-25 8.54-37.8 4.8-29.28 9.48-58.58 14.42-87.84 5.07-30.09 10.41-60.15 16.21-90.11 5.66-29.27 11.83-58.44 18.9-87.4q2.52-10.34 5.21-20.62a.93.93 0 0 0 -1.8-.49z"/><path d="m685 541.33a255.21 255.21 0 0 0 44.4 127.24c7.6 11.1 16.6 21.93 28.79 27.73 16.75 8 37.08 5 53.66-3.33s30.18-21.47 43.5-34.4c33.36-32.35 51.39-48.24 76.89-87.1 7.53-11.48 18.19-25.37 32.61-18.56a7 7 0 0 0 7.84-1.23c3-3 .85-6.57-1.2-9.28l-13.28-17.52c-4.12-5.43-9.52-11.46-16.3-10.69-2.81.32-5.25 2-7.76 3.29-66 34.23-115.33 57.89-146.14 88.93-8.52-20.77-14.25-63.18-22.77-83.95"/><path d="m684 541.33a256.57 256.57 0 0 0 30.5 105.28 220.73 220.73 0 0 0 19.61 30.44c7.07 9.05 15.6 17.25 26.4 21.59 11 4.42 23.33 4.42 34.75 1.74 24.25-5.71 42.91-23.4 60.26-40.22 15.37-14.9 31.13-29.49 45.42-45.45q10.17-11.36 19.23-23.64 5.18-7 10-14.27c3-4.52 5.9-9.17 9.36-13.38 3.07-3.74 6.62-7.34 11-9.47a15.54 15.54 0 0 1 6.59-1.58 18.65 18.65 0 0 1 7.4 1.8c4.47 1.88 11.25-.68 10.85-6.29-.19-2.61-1.85-4.79-3.36-6.8l-6.29-8.32c-3.69-4.87-7.14-10.19-11.52-14.47-3.63-3.55-8.41-6.35-13.64-5.22-2.85.61-5.38 2.34-7.93 3.66l-9.31 4.81-17.95 9.24c-21 10.82-42 21.62-62.39 33.56-16.45 9.64-32.59 20.07-47 32.61q-4.68 4.06-9.06 8.46l2.36.62c-4.13-10.12-6.55-20.94-9-31.55-2.76-12-5.24-24-8.41-35.92a136.48 136.48 0 0 0 -5.28-16.5c-.72-1.74-3.6-1-2.87.79 4.12 10.12 6.57 20.93 9 31.54 2.79 12 5.3 24 8.49 35.9a136.48 136.48 0 0 0 5.31 16.49 1.42 1.42 0 0 0 2.35.62c12.5-12.57 27-23 41.9-32.44 18.33-11.58 37.48-21.82 56.68-31.87 11.21-5.87 22.46-11.65 33.7-17.45 5.77-3 11.46-6.2 17.31-9 5.37-2.6 10.24-.07 14.14 3.83 4.34 4.34 7.81 9.64 11.51 14.52 2 2.69 4.11 5.38 6.14 8.08 1.37 1.84 3.44 4.51 2.09 6.87-1.54 2.67-4.88 2.78-7.4 1.71a20.35 20.35 0 0 0 -6.93-1.76 19.64 19.64 0 0 0 -12.35 4c-8.33 6-13.49 15.37-19.15 23.68-6 8.77-12.27 17.32-19 25.51-12.58 15.26-26.74 29.07-41 42.79-8.59 8.3-17 16.77-25.91 24.78s-18.39 15.53-29.1 21c-10.45 5.33-22.26 8.51-34 8.06a49.39 49.39 0 0 1 -31.3-12.89c-8.62-7.71-15.3-17.46-21.47-27.17a255 255 0 0 1 -36.97-100.65q-1.23-8.78-1.84-17.63c-.09-1.22-2-1.23-1.91 0z"/><path d="m542.15 157.67a50.78 50.78 0 0 1 -9.31 22.17c-1.62 2.19-3.39 5.43-1.39 7.3a12.92 12.92 0 0 0 2 1.2c2.86 1.81 2.9 5.88 2.73 9.26-.38 7.2.14 15.29 5.39 20.23s13.16 5 20.13 3.67c19.14-3.56 37.29-17.11 41.86-36 2.14-8.85 1.25-18.25-1.34-27-1.93-6.51-4.9-12.91-9.84-17.56-8.92-8.4-23-9.54-34.44-5-7.8 3.08-15.3 13.4-15.79 21.77" fill="#fff"/><path d="m604.45 185.71a50.35 50.35 0 0 0 -.56-26.49c-2.07-7.47-5.46-15-11.48-20.16a31.78 31.78 0 0 0 -19.85-7.17c-6.84-.17-14.49 1.31-20 5.53-6.06 4.63-11.35 12.4-11.43 20.25 0 1.39 1.93 1.3 2.09 0 .82-6.36 4.66-12.41 9.36-16.66 4.85-4.38 11.54-6.1 18-6.3a30 30 0 0 1 18.42 5.21c5.92 4.22 9.39 11 11.54 17.76 2.79 8.79 4 18.43 2.18 27.54a.92.92 0 0 0 1.77.49z"/><path d="m541.26 157.43a55.57 55.57 0 0 1 -7.67 18.84c-1.58 2.48-3.86 4.82-4.35 7.82a4.51 4.51 0 0 0 .75 3.51c.92 1.22 2.49 1.46 3.47 2.57 1.69 1.93 1.42 5.06 1.31 7.43a51 51 0 0 0 .21 8.74c.73 5.75 3.07 11.36 8.21 14.47 5.52 3.33 12.72 3.28 18.79 1.7 1.11-.29.92-2.19-.28-2.06-5.34.56-11.21 1-16.15-1.52s-7.22-7.8-7.82-13.16a53 53 0 0 1 -.15-8.17c.12-2.51.15-5.17-.9-7.52a6.65 6.65 0 0 0 -2.24-2.77c-1-.72-2.58-1-2.47-2.52a7.49 7.49 0 0 1 1.45-3.33c.92-1.4 1.94-2.71 2.83-4.13a48 48 0 0 0 6.81-19.66c.13-1-1.6-1.25-1.8-.24z"/><path d="m543.37 173a6.57 6.57 0 0 1 .63 1l-.12-.28a1.82 1.82 0 0 1 .11.4v-.33a2.28 2.28 0 0 1 0 .37v-.35a1.73 1.73 0 0 1 -.1.45l.11-.26a2 2 0 0 1 -.11.2l.21-.28a.81.81 0 0 1 -.16.16l.27-.21h-.05 1.38l.28.21a.65.65 0 0 1 -.17-.16l.22.28a1.28 1.28 0 0 1 -.11-.2l.14.33a.79.79 0 0 1 -.06-.22l.05.38a.89.89 0 0 1 0-.23l-.05.38a1.89 1.89 0 0 1 .05-.23l-.14.35v-.06a1.45 1.45 0 0 0 .19-.73l-.05-.38a1.38 1.38 0 0 0 -.83-.93 1.4 1.4 0 0 0 -1.1 0 1.08 1.08 0 0 0 -.46.3 1.44 1.44 0 0 0 -.37.63 1.69 1.69 0 0 0 -.11.7 2.32 2.32 0 0 0 .07.52.61.61 0 0 0 0 .18 2.24 2.24 0 0 0 1 1.28 1.39 1.39 0 0 0 .87.17.71.71 0 0 0 .35-.1 1 1 0 0 0 .44-.28.93.93 0 0 0 .14-.14 2.47 2.47 0 0 0 .28-.38 2 2 0 0 0 .25-.63 2.3 2.3 0 0 0 0-1 2.59 2.59 0 0 0 -.23-.64 2.5 2.5 0 0 0 -.69-.86 3.15 3.15 0 0 0 -.55-.41l-.41-.21a1 1 0 0 0 -1.13.14 1.14 1.14 0 0 0 -.24.41 1 1 0 0 0 .1.72z"/><path d="m574.37 174.07a2.1 2.1 0 0 0 -1.75.33 3 3 0 0 0 -1.08 1.53 5.42 5.42 0 0 0 -.32 1.59 3.51 3.51 0 0 0 .33 1.75 1 1 0 0 0 1.36.36 1.75 1.75 0 0 0 .59-2.25 1.65 1.65 0 0 0 -.58-.65 1 1 0 0 0 -.8-.1 1 1 0 0 0 -.62.47 1.06 1.06 0 0 0 .37 1.42c.15.09-.18-.18-.07-.05 0 0-.14-.23-.07-.08s-.07-.26 0-.1 0 0 0-.09c0 0 0 .19 0 0s0 0 0 0c.07-.16.09-.21 0-.14v.06l.1-.13c-.07.07 0 0 .1-.07l1.35.36a.45.45 0 0 0 -.06-.12c.12.17 0 .11 0 0l-.06-.24c0-.16 0-.05 0 0a.49.49 0 0 0 0-.12c0-.1 0-.2 0-.3a2.83 2.83 0 0 1 0-.29c0-.13 0 0 0 .06s0-.09 0-.13a5.23 5.23 0 0 1 .12-.57c0-.09.05-.17.07-.25s.09-.2 0-.07 0 0 0 0l.15-.25c.06-.11 0 0 0 0a.31.31 0 0 0 .07-.09.52.52 0 0 0 .11-.1c.08-.07-.14.09 0 0l.1-.06c.15-.08 0 0 0 0a.36.36 0 0 0 .11 0c.14 0 0 0-.07 0s.13 0 .15 0-.22 0 0 0a.9.9 0 0 0 .48-1.74z"/><path d="m539.72 198.76a.59.59 0 0 1 0 .14c0-.12 0-.12 0 0a1.64 1.64 0 0 1 0 .22v.53 1.17a18.41 18.41 0 0 1 -.12 2.35 1.08 1.08 0 0 0 1.06 1.07 1.1 1.1 0 0 0 1.06-1.07 13.67 13.67 0 0 0 -.44-4.85.87.87 0 0 0 -1.07-.6.89.89 0 0 0 -.6 1.06z"/><path d="m543.87 165.93a1.24 1.24 0 0 0 .21-.18c0 .05-.18.12-.05 0l.12-.07.21-.13.13-.06c.15-.07-.19.07-.07 0l.5-.14a.88.88 0 0 1 .27-.06s-.28 0-.09 0h.14a4.51 4.51 0 0 1 .52 0c.13 0-.3-.05-.1 0h.14l.24.06a2.67 2.67 0 0 1 .26.09s-.26-.12-.09 0l.12.06c.16.09.32.18.47.28a1.1 1.1 0 0 0 1.34-1.73 3.8 3.8 0 0 0 -3-.92 3.92 3.92 0 0 0 -1.59.48 4.14 4.14 0 0 0 -1.22 1.1 1 1 0 0 0 -.1.74 1 1 0 0 0 .35.5 1 1 0 0 0 1.25-.08z"/><path d="m575.86 183.05a8.2 8.2 0 0 0 3.25-7.62c-.47-2.86-2.09-6.36-5-6.54-3.66-.24-6.66 3.4-6.62 6.31a81.8 81.8 0 0 1 -1.39-15 29.18 29.18 0 0 1 3.9-14.48 62.66 62.66 0 0 1 -34.09 9.45 10.67 10.67 0 0 1 1.32-4.83 40.58 40.58 0 0 1 31.29-22.34 24.9 24.9 0 0 1 10.45.72 14.39 14.39 0 0 1 8.2 6.25c3.73-1.45 8.09-.27 11.34 2.09s5.57 5.74 7.74 9.11c3 4.73 5.87 9.64 7.49 15s1.94 11.28-.07 16.52c-1.6 4.17-4.56 7.66-7.49 11q-2.67 3.06-5.39 6.11a8.56 8.56 0 0 1 -3.68 2.84 7.54 7.54 0 0 1 -4-.2 27.51 27.51 0 0 1 -17.38-14"/><path d="m576.29 183.8a9.22 9.22 0 0 0 4.07-7.43 10.46 10.46 0 0 0 -2.91-7.33c-4.46-4.09-11.14 1-11.26 6.16l2.59-.36c-1.47-9.41-2.83-19.87 2.32-28.47a1.3 1.3 0 0 0 -1.76-1.76 61.79 61.79 0 0 1 -33.44 9.28l1.28 1.28c0-2.22 1.11-4.27 2.16-6.16a38.52 38.52 0 0 1 3.17-4.82 39.45 39.45 0 0 1 8.5-8.07c6.55-4.58 14.72-7.48 22.78-7 4.8.27 9.69 2.24 12.23 6.52a1.35 1.35 0 0 0 1.5.61c7-2.48 12.7 3.51 16.16 8.78 4 6 7.87 12.43 9.28 19.59a23.59 23.59 0 0 1 -.19 10.54 25.29 25.29 0 0 1 -4.93 9.1c-2.29 2.88-4.78 5.62-7.22 8.37a14.3 14.3 0 0 1 -3.25 3.2c-1.63.93-3.62.24-5.28-.29-6.64-2.14-11.63-6.92-15.2-12.77-.92-1.51-2.95-.19-2.3 1.34 2.7 6.36 8.57 11.26 14.89 13.82 3.41 1.38 7.31 2.47 10.47 0a34.7 34.7 0 0 0 4.21-4.44q2.08-2.35 4.16-4.74a38.36 38.36 0 0 0 6.6-9.8 24.3 24.3 0 0 0 1.62-11.95c-.85-8.19-4.91-15.62-9.41-22.35-2.35-3.51-5-7-8.58-9.31-3.44-2.19-7.83-3.15-11.74-1.7l1.5.61c-5.2-8.67-16.7-8.87-25.42-6.55a42.19 42.19 0 0 0 -21.6 13.9 40.63 40.63 0 0 0 -4.15 6.09c-1.28 2.29-2.51 4.77-2.52 7.45a1.3 1.3 0 0 0 1.28 1.28 64.44 64.44 0 0 0 34.74-9.62l-1.77-1.76c-5.57 9.29-4.26 20.28-2.64 30.48.25 1.51 2.57 1.09 2.6-.35.07-3.33 4.69-7 7.3-3.76a7.85 7.85 0 0 1 -.89 11c-.72.64.25 1.93 1 1.36z"/><path d="m612.47 163.19c-.82-7.69-.85-15.6 1.36-23s6.93-14.32 13.77-17.92 15.92-3.27 21.78 1.73c3.58 3.09 5.67 7.52 8.68 11.17s7.77 6.67 12.27 5.22c2.7-.86 4.66-3.13 6.73-5.07a21.89 21.89 0 0 1 10-5.7 12.53 12.53 0 0 1 10.94 2.48c3.22 2.88 4.25 7.42 6.32 11.22 1.29 2.35 3.54 4.7 6.19 4.33 3.24-.46 4.51-4.35 6.64-6.82a9.51 9.51 0 0 1 11-2.32c9.53 4.52 5.75 16.92 1.05 23.44-7.85 10.89-20 19.38-33.29 21.91a49.28 49.28 0 0 1 -18 0c-6-1.1-11.63-4.61-17.85-4.21-5.62.37-10.46 3.89-16 4.42-10.76 1-19.79-8.18-26.43-15.39-2.32-2.51-4.71-5.25-5.25-8.63"/><path d="m613.59 163.19c-1.06-11.74-.33-24.85 7.87-34.12a21.75 21.75 0 0 1 13.22-7.45c4.93-.67 10.27.52 14 4 4.09 3.82 6.12 9.34 10.34 13.06s10 5.39 14.94 1.89c2.23-1.6 4-3.72 6.15-5.41a18.55 18.55 0 0 1 7.49-3.7 11.12 11.12 0 0 1 7.58 1c2.34 1.3 3.67 3.57 4.77 5.93 2 4.29 4.07 11.14 9.89 11.27 2.6.06 4.55-1.55 6-3.52 1.33-1.77 2.26-4 4.16-5.22a7.85 7.85 0 0 1 11 2.54c1.9 3.21 1.28 7.35.18 10.73a31.65 31.65 0 0 1 -6.85 11.19 55.83 55.83 0 0 1 -12.41 10.41c-10.12 6.22-22.63 8.79-34.31 6.19-5.86-1.31-11.34-4.57-17.51-4.19-5.83.36-10.83 4.05-16.62 4.4-5.18.31-9.83-2-13.93-5a75.24 75.24 0 0 1 -11.28-10.57c-1.88-2-3.61-4.22-4.14-7-.45-2.31-3.91-1.32-3.51 1 .53 3.06 2.31 5.63 4.28 7.95 1.77 2.09 3.67 4.11 5.6 6.06 4 4 8.37 7.74 13.64 9.92a21.53 21.53 0 0 0 8 1.71 24.77 24.77 0 0 0 8.86-1.85c2.8-1.05 5.65-2.36 8.65-2.68a22.08 22.08 0 0 1 9.12 1.46 64.15 64.15 0 0 0 8.89 2.6 52.14 52.14 0 0 0 10.21.77 50.31 50.31 0 0 0 18.34-4 58.37 58.37 0 0 0 14.79-9.27 52.56 52.56 0 0 0 10.88-12.22c4.32-7 6.77-18.09-1.38-23.43a11.5 11.5 0 0 0 -14.73 1.82c-1.52 1.75-2.42 4.21-4.24 5.67-2 1.62-4.1-.44-5.17-2.15-1.48-2.39-2.31-5.14-3.59-7.63a14.4 14.4 0 0 0 -5.69-6.25c-5.45-3-12-1.73-17 1.52a51.24 51.24 0 0 0 -6.68 5.71c-2 1.86-4.34 3.13-7.16 2.43-5.79-1.44-8.6-7.34-11.88-11.73-3.48-4.65-8-7.83-13.83-8.59a22.94 22.94 0 0 0 -15.64 3.66c-10.24 6.83-14.09 19.34-14.15 31.11a79.25 79.25 0 0 0 .64 10c.16 1.4 2.36 1.45 2.23 0z"/><path d="m610.87 152c.53 2.92 1.21 5.8 1.85 8.69l.95 4.25c.15.68.3 1.36.46 2 .07.34.16.67.24 1l.15.68c0 .27.17.14.5-.39-1.33.55-.88 2.61.61 2.22 1.68-.42 1.22-2.25.93-3.47-.39-1.7-.82-3.38-1.24-5.07-.86-3.49-1.67-7-2.66-10.45a.93.93 0 0 0 -1.79.49z" fill="#18c4ff"/><path d="m607 224.48a97.65 97.65 0 0 1 -7-14q-1.44-3.54-2.59-7.19c-.79-2.48-1.22-5.14-2.11-7.57-.49-1.35-2.92-1.29-2.71.36a39.38 39.38 0 0 0 2.16 7.72c.85 2.51 1.82 5 2.88 7.43a92.42 92.42 0 0 0 7.74 14.19c.69 1 2.33.09 1.68-1z"/><path d="m571.56 237.17a114.35 114.35 0 0 0 -8.2-16.33c-.83-1.36-3-.1-2.13 1.25a129.21 129.21 0 0 1 8.63 15.8c.44 1 2.1.26 1.7-.72z"/><g fill="#18c4ff"><path d="m604.94 210.86-46.94 21.26a3 3 0 0 0 -1.1 4.56 18.59 18.59 0 0 1 1.63 21.08c-7.94 13.23-10.24 29.87-9 45.49 1.59 19.73 8.09 38.69 12.45 58 9.08 40.2 8.89 82 4.06 123-4.17 35.64-11.84 70.75-17.84 106.2-.84 4.94-1.63 10.1-.18 14.9 1.69 5.62 6.21 9.9 10.89 13.43 20.87 15.73 59.09 33.48 85.23 32.22s40.37-21.08 65-29.94c36.73-13.24 70.38-13.7 99.14-59.8 5.22-8.36 12-15.71 19-22.64 6.29-6.22 13.61-11.28 20.25-17.12a113.72 113.72 0 0 0 30.25-42.76c.85-2.12 1.65-4.44 1-6.63a10.7 10.7 0 0 0 -3.2-4.48c-21.58-20.92-47.5-36.8-70.37-56.3-13.94-11.88-26.69-25.07-39.42-38.23l-36.61-37.84c-12.26-12.64-24.51-25.26-35.25-39.26-20.07-26-37.47-58.42-69-67.83-6.72-2-15.15-4.06-16.77-10.89-.4-1.69.64-7.51-.94-6.78-1.07.5-4.64 1.25-4.17 2.92"/><path d="m604.5 210.11q-12.27 5.25-24.44 10.68-8.2 3.65-16.41 7.31c-2.29 1-6.41 2-8 4.24a4.4 4.4 0 0 0 -.28 4.57c1.24 2.28 2.76 4.05 3.52 6.62 1.65 5.53.17 10.25-2.53 15.11-5.34 9.59-7.84 20.55-8.45 31.45-1.38 24.79 7.55 48.53 12.85 72.37 11.19 50.36 7.61 102.42-.68 152.92-4.19 25.47-9.57 50.74-13.66 76.23-.86 5.39-1.38 11 .81 16.12 2 4.82 5.92 8.55 10 11.71a159 159 0 0 0 23.43 14.74c17.23 9.07 36.5 16.87 56.11 18.26a57.83 57.83 0 0 0 27-4.54c8.66-3.71 16.4-9.14 24.31-14.19a119.29 119.29 0 0 1 26.32-12.85c7.93-2.66 16-4.91 24-7.34 15.79-4.79 31.21-10.69 44.36-20.9a107.86 107.86 0 0 0 20.26-21c3.47-4.67 6.37-9.72 9.77-14.43a124.91 124.91 0 0 1 11.65-13.63c8.3-8.59 18.11-15.31 26.79-23.48a115 115 0 0 0 27.49-39.93c.95-2.32 1.94-4.75 1.65-7.31s-2-4.5-3.79-6.25a290.19 290.19 0 0 0 -26.8-22.71c-19.19-14.75-38.92-28.63-56.55-45.3-18.63-17.6-36.08-36.49-53.9-54.91-17-17.55-34.26-34.85-48.77-54.56-11.44-15.55-22-32.15-36.36-45.26a78.17 78.17 0 0 0 -22.89-15c-4.35-1.78-8.94-2.77-13.32-4.45-3.58-1.38-8-3.75-8.42-8.06-.16-1.86 1.11-7.11-2-7.35a8.57 8.57 0 0 0 -3.79 1.26c-1.24.64-2.42 1.63-2.23 3.17.23 1.86 3.18 1.88 2.95 0-.07-.56 1.69-1 2.11-1.13a3.1 3.1 0 0 0 .71-.25c.36-.49-.54-1-.75-.42a10.08 10.08 0 0 0 0 2.05c0 .89-.09 1.78 0 2.67.17 3.62 2.66 6.58 5.58 8.49 3.55 2.32 7.79 3.42 11.81 4.61a64.59 64.59 0 0 1 12.88 5.38c16.42 9.09 28.33 24.38 39.2 39.28 5.58 7.66 11 15.45 16.79 23 7.39 9.56 15.48 18.54 23.78 27.32 17.18 18.14 34.7 36 52.09 53.91 8.5 8.76 17.06 17.48 26 25.75 8.4 7.74 17.23 14.94 26.3 21.88s18.64 13.86 27.83 21c4.7 3.62 9.34 7.32 13.86 11.16a141 141 0 0 1 12.71 11.59c2.28 2.48 2.23 4.89 1.09 8a88.74 88.74 0 0 1 -3.74 8.4 113.58 113.58 0 0 1 -8 13.6 115.82 115.82 0 0 1 -22.12 23.93c-4.56 3.75-9.28 7.3-13.66 11.24a149.77 149.77 0 0 0 -11.97 12.27c-7.46 8.48-12.77 18.43-19.92 27.14a101.61 101.61 0 0 1 -41.59 30.12c-15 6-30.82 9.42-46 14.83-9 3.2-17.14 8-25.13 13.14-7.73 5-15.44 10.29-24.09 13.58-17.89 6.81-37.12 2.37-54.48-4a192.41 192.41 0 0 1 -27.65-12.7c-8-4.43-16.48-9.3-23-15.73-4.17-4.11-6.51-8.9-6.38-14.82s1.64-12.15 2.69-18.09c2.2-12.45 4.56-24.87 6.83-37.31 8.92-48.8 15.94-98.25 10.78-147.9a295.74 295.74 0 0 0 -6-36.22c-2.72-11.7-6.13-23.22-8.71-34.94s-4.25-23.44-3.45-35.33a78.11 78.11 0 0 1 2.9-16.62c1.59-5.4 4.15-10 6.64-15a20.06 20.06 0 0 0 -.76-19.11c-.93-1.56-3.21-3.39-.93-4.89s5.37-2.46 7.9-3.62c10.66-4.89 21.35-9.74 31.93-14.81l6.8-3.27c1-.48.13-1.91-.87-1.49z"/><path d="m561.27 915.29a82.47 82.47 0 0 0 -8.93-1.78c-8.91-1.15-20.09 1.91-22.05 10.67-.06-3.93-.13-7.86-.19-11.79l-24-5.84c-6 21.85-16.13 38.81-33.77 55.58a5.82 5.82 0 0 0 2.94 10 188.66 188.66 0 0 0 27.64 2.86c12.31.37 25.73-.88 34.82-9.2 6.25-5.71 9.49-13.91 12.53-21.81z"/><path d="m562 912.83c-7.06-1.71-14.21-3-21.36-1-5.88 1.63-11.29 5.51-12.76 11.7l5 .68q-.11-5.89-.19-11.79a2.61 2.61 0 0 0 -1.87-2.46l-24-5.84a2.59 2.59 0 0 0 -3.13 1.78 114.3 114.3 0 0 1 -15.22 33.7 118.65 118.65 0 0 1 -11.94 14.79c-1.15 1.21-2.32 2.41-3.5 3.58a27 27 0 0 0 -3.65 3.83 8.35 8.35 0 0 0 -.81 7.58 8.44 8.44 0 0 0 6.56 5.28c3.9.7 7.84 1.25 11.78 1.7a158.82 158.82 0 0 0 22.34 1.18c6.45-.17 13.05-.94 19.12-3.24a33.92 33.92 0 0 0 15.63-11.81c4.62-6.3 7.2-13.89 10-21.12l9.77-25.4a2.56 2.56 0 0 0 -1.78-3.14 2.6 2.6 0 0 0 -3.13 1.78q-4.19 10.86-8.36 21.71c-2.42 6.31-4.61 12.82-7.85 18.77a30.22 30.22 0 0 1 -12.1 12.64c-5.18 2.79-11.13 4-17 4.46a125.81 125.81 0 0 1 -19.89-.3c-3.83-.3-7.65-.71-11.45-1.26q-2.65-.37-5.3-.84a4.78 4.78 0 0 1 -2.91-1.1 3.28 3.28 0 0 1 -.43-4.1 20 20 0 0 1 2.71-2.74c1.29-1.28 2.56-2.57 3.8-3.89a128.45 128.45 0 0 0 11.66-14.25 117.79 117.79 0 0 0 16.81-36.48l-3.13 1.77 24 5.84-1.87-2.46c.06 3.93.13 7.86.19 11.79 0 2.81 4.32 3.54 5 .68 1.1-4.63 5.21-7.16 9.82-8.31 6-1.5 12.06-.25 18 1.2 3.22.78 4.58-4.13 1.44-4.91z"/><path d="m971.49 542.4-13.28-17.52c-4.12-5.43-9.52-11.46-16.3-10.69-2.81.32-5.25 2-7.76 3.29-15.84 8.21-30.7 15.81-44.58 23a134 134 0 0 1 14.29 26.15l10-4.4c-6.76 8.36-2.86 20.68 1.32 30.58.25.59.5 1.18.74 1.77 5.24-6.86 10.59-14.43 16.32-23.16 7.53-11.48 18.19-25.37 32.61-18.56a7 7 0 0 0 7.84-1.23c3.04-3 .85-6.52-1.2-9.23z"/><path d="m973.69 541.12c-4.58-6-9.11-12.11-13.73-18.12-3.49-4.55-7.69-9.44-13.47-11a13.74 13.74 0 0 0 -9.47 1.06c-3 1.4-6 3.14-9 4.68l-19.45 10q-10.17 5.25-20.32 10.52a2.57 2.57 0 0 0 -.92 3.49 133.1 133.1 0 0 1 14 25.55 2.61 2.61 0 0 0 3.74 1.52l10-4.4-3.09-4c-8.21 10.39-3.16 24 1.41 34.82a2.59 2.59 0 0 0 4.66.61q6.24-8.19 12-16.72c3.38-5 6.5-10.17 10.32-14.83 3.16-3.85 7-7.87 11.68-9.68a13.6 13.6 0 0 1 6.85-.93c2.76.35 5.2 2 8 2.33a9 9 0 0 0 9.07-4.79c1.7-3.62-.17-7.25-2.36-10.17a2.64 2.64 0 0 0 -3.49-.92 2.57 2.57 0 0 0 -.91 3.49c1.21 1.61 3.47 4.29 1.6 6.18s-4.28 1-6.43.11a19.31 19.31 0 0 0 -15.46.53c-4.73 2.18-8.64 6-11.92 10-3.8 4.59-7 9.64-10.28 14.57-4.19 6.22-8.53 12.33-13.08 18.29l4.66.61c-2.2-5.21-4.35-10.5-5.29-16.12-.77-4.65-.46-9.9 2.57-13.75a2.56 2.56 0 0 0 -3.09-4l-10 4.4 3.74 1.52a137.79 137.79 0 0 0 -14.54-26.76l-.92 3.49c11.66-6.08 23.35-12.08 35-18.1 3.18-1.65 6.38-3.28 9.55-5 2.38-1.25 4.79-3 7.58-3 5.1 0 9.09 4.58 12 8.21 4.93 6.13 9.53 12.54 14.28 18.8a2.64 2.64 0 0 0 3.49.92 2.58 2.58 0 0 0 1.02-3.41z"/></g><path d="m485.37 939.16a17.33 17.33 0 0 0 5.43 7.61 1.13 1.13 0 1 0 1.37-1.78l-.09-.07-.22-.18-.39-.33c-.27-.24-.54-.49-.79-.75a18.44 18.44 0 0 1 -1.44-1.63v-.06a2 2 0 0 1 -.17-.23q-.16-.21-.3-.42c-.21-.3-.4-.61-.59-.92a16.82 16.82 0 0 1 -1-2 1 1 0 0 0 -1.77.75z"/><path d="m490 931.44a10.78 10.78 0 0 0 1.27 3.06 17.62 17.62 0 0 0 1.84 2.7 16.17 16.17 0 0 0 5 4.09c1.22.64 2.31-1.19 1.09-1.86a16.47 16.47 0 0 1 -4.58-3.64 14.17 14.17 0 0 1 -1.64-2.28c-.53-.89-.87-1.84-1.34-2.76a.88.88 0 0 0 -1.11-.36.91.91 0 0 0 -.52 1.05z"/><path d="m495.44 921.09a23.74 23.74 0 0 0 8.85 11.17 1.1 1.1 0 0 0 1.49-.39 1.11 1.11 0 0 0 -.39-1.49 23 23 0 0 1 -8.23-10c-.42-1-2.11-.27-1.72.72z"/><path d="m930.25 565.65a9.05 9.05 0 0 1 2.75 7.55 1.08 1.08 0 0 0 1.07 1.08 1.1 1.1 0 0 0 1.08-1.08 10.7 10.7 0 0 0 -3.58-8.85c-.88-.76-2.16.48-1.29 1.3z"/><path d="m937.05 558.25c.84 2.72 1.74 5.42 2.64 8.12a1.12 1.12 0 0 0 1.34.77 1.09 1.09 0 0 0 .76-1.34c-.92-2.7-1.85-5.4-2.84-8.07a1 1 0 0 0 -1.9.52z"/><path d="m946.14 551.81a13.71 13.71 0 0 1 2.64 10.69 1.15 1.15 0 0 0 .78 1.39 1.14 1.14 0 0 0 1.39-.79 15.27 15.27 0 0 0 -3.28-12.47c-.7-.83-2.19.3-1.53 1.18z"/><path d="m577.21 244.17c-15.29 4.58-24.64 19.59-32.58 33.44q-20.18 35.19-40.34 70.39l-14.16-92.55c-.85-5.5-1.79-11.26-5.14-15.7-4.77-6.34-13.38-8.55-21.31-8.41-15.66.27-31.72 9.33-37.06 24.06-2 5.55-2.46 11.56-4.51 17.1-6 16.28-25.36 28.5-22.37 45.6 2.68 15.27 22.55 23.67 23.53 39.15.42 6.62-2.25 14.93 3.16 18.77 1.73 1.23 3.91 1.59 5.83 2.49 5.29 2.49 7.74 8.69 8.59 14.48s.63 11.82 2.77 17.27c5.45 13.93 22.82 17.86 37.47 20.93 2.67.56 5.44 1.2 7.61 2.87a26.36 26.36 0 0 1 4.22 4.77c6.81 8.51 21.05 12.72 28.33 4.61 4.2-4.69 5.1-12.38 10.71-15.23 2.82-1.42 6.24-1.24 9-2.66 4.61-2.32 6.18-7.95 7.81-12.84 10.18-30.56 39.09-51.54 51.4-81.31a83.54 83.54 0 0 0 -.13-63.38c-3.14-7.53-8.9-15.49-17.05-15.49" fill="#18c4ff"/><path d="m577 243.23c-14 4.12-23 16.34-30.17 28.24-4.58 7.57-8.89 15.3-13.3 23q-7.15 12.4-14.26 24.81l-16.1 28.06 2.46.33-13.52-88.17c-.94-6.18-1.49-12.81-4.59-18.37-2.75-4.93-7.54-8.14-12.86-9.75-10.29-3.11-22-1.09-31.42 3.85a39.56 39.56 0 0 0 -12.37 10 37 37 0 0 0 -7.12 15.23c-.78 3.32-1.36 6.69-2.37 9.94a37.41 37.41 0 0 1 -3.19 7.21 119.63 119.63 0 0 1 -9 12.9c-5.72 7.55-12.1 16.22-11 26.25 1.05 9.54 8.17 16.42 14.27 23.2 3 3.37 6.05 6.92 7.9 11.11 2 4.5 1.54 9.05 1.31 13.82s.21 10.41 5.09 12.91c2.5 1.29 5.27 1.67 7.42 3.63a15.94 15.94 0 0 1 4.12 6.77c2 6 1.49 12.43 2.81 18.56a24.83 24.83 0 0 0 7.72 13.32c7.53 6.75 17.92 9.44 27.55 11.58 2.64.59 5.35 1 7.93 1.83a10.86 10.86 0 0 1 4 2.13 30 30 0 0 1 3.3 3.9 26.36 26.36 0 0 0 12.05 8.48c4.53 1.58 9.66 1.84 14.09-.17 4.61-2.1 6.89-6.42 9-10.75a21 21 0 0 1 3.94-6.17c2.1-2 4.89-2.28 7.59-2.89a12.2 12.2 0 0 0 6.92-4 23.2 23.2 0 0 0 3.78-7.2 123.93 123.93 0 0 1 6.14-15.23 127.15 127.15 0 0 1 8.91-14.54c13-18.61 29.62-35.06 38.12-56.49a85.31 85.31 0 0 0 1.61-57.28c-1.82-5.54-4.12-11-7.86-15.55-3.26-3.94-7.66-6.75-12.88-6.82-2 0-2 3.15 0 3.18 5.13.08 9.2 3.79 12 7.81 3.27 4.8 5.28 10.43 6.83 16a82.26 82.26 0 0 1 1.62 37.21c-2.18 11.6-7 22.23-13.39 32.11-6 9.32-13.09 17.89-19.88 26.64s-13.23 17.45-18.12 27.24a137 137 0 0 0 -6 15.1 17.25 17.25 0 0 1 -3.63 6.47c-2.12 2.13-5 2.41-7.76 3.05a12.41 12.41 0 0 0 -6.5 3.51 24.15 24.15 0 0 0 -3.82 6c-2 4.1-4 8.47-8.58 10.18-4.25 1.59-9.11.81-13.15-1a24.33 24.33 0 0 1 -6.16-4c-2-1.84-3.45-4.15-5.31-6.13-3.91-4.15-10.08-4.56-15.35-5.75a94.85 94.85 0 0 1 -14.32-4.22 34.38 34.38 0 0 1 -11.8-7.31c-3.84-3.87-5.7-8.76-6.4-14.11-.76-5.82-.69-11.77-3-17.27a17.19 17.19 0 0 0 -4.39-6.35c-2.22-1.91-4.79-2.46-7.38-3.64-4.85-2.21-4.25-8-4-12.47.28-4.71.16-9.06-1.79-13.44-3.65-8.2-11.11-13.88-16.4-20.92-2.64-3.5-4.83-7.44-5.38-11.85a22.9 22.9 0 0 1 2.71-13.17c4.49-8.85 11.79-15.88 16.72-24.45 2.91-5.06 4.33-10.43 5.56-16.1s2.94-11 6.54-15.62c6.33-8.18 16.37-13.23 26.54-14.55 10.34-1.35 22.93 1 27.25 11.76a42.38 42.38 0 0 1 2.22 8.94c.56 3.39 1.05 6.8 1.57 10.19l3.28 21.42 6.48 42.34 3.17 20.63c.18 1.19 1.93 1.25 2.46.32q14-24.39 27.95-48.8c4.48-7.85 8.92-15.72 13.44-23.55a121.47 121.47 0 0 1 11.94-17.76c5-6 11.15-11.05 18.69-13.43a1 1 0 0 0 -.52-1.89z" fill="#18c4ff"/><path d="m564.62 387.54q11.58-15.27 22.84-30.77c6.51-9 13.21-18 17.25-28.41a41.38 41.38 0 0 0 3-17.88 1.22 1.22 0 0 0 -2.44 0c.07 11-4.18 20.91-9.91 30.09-2.88 4.62-6.07 9-9.27 13.42-3.65 5-7.26 10.08-10.88 15.13-4.14 5.79-8.28 11.58-12.36 17.42-.74 1.06 1 2 1.72 1z"/><path d="m473.14 236.15a49.26 49.26 0 0 1 -20 3.69 3.81 3.81 0 0 1 -4.35-3 55.12 55.12 0 0 1 -1-35.78c1-3.17 2.65-6.59 5.81-7.62a1.41 1.41 0 0 1 1 0c.57.26.62 1 .58 1.67l-.74 13.38c-.31-5.24-.5-10.93 2.51-15.23.87-1.24 2.3-2.4 3.75-2 1.88.57 2.07 3.12 1.88 5.08l-.86 8.8c-.37-4.91-.63-10.23 2.09-14.33.57-.86 1.51-1.73 2.5-1.45s1.32 1.38 1.53 2.33a59.78 59.78 0 0 1 1.28 9.79c1.15-3 .47-6.4.43-9.64a13.27 13.27 0 0 1 .42-3.58 2.46 2.46 0 0 1 4.77.06 106.36 106.36 0 0 1 2.62 16.68c2.2-.48 2.1-3.79 3.74-5.32a3.75 3.75 0 0 1 4.86.21 7.17 7.17 0 0 1 2.13 4.74c.59 5.28-1.9 10.37-4.31 15.11l-7.78 15.26" fill="#fff"/><path d="m471 188.49a1.32 1.32 0 0 1 2.15-.52c.48.48.5 1.47.62 2.1.19 1 .4 1.89.6 2.84a99.2 99.2 0 0 1 1.81 12.09 1.2 1.2 0 0 0 1.5 1.14 4.4 4.4 0 0 0 2.78-2.81c.52-1.18.91-3 2.39-3.22 2-.38 3.36 1.63 3.8 3.33a13.15 13.15 0 0 1 -.06 6.08c-.94 4.34-3.21 8.28-5.21 12.19q-3.22 6.28-6.48 12.56c-.78 1.5 1.51 2.83 2.27 1.32 1.9-3.77 3.78-7.55 5.69-11.32a101.94 101.94 0 0 0 5.14-10.69c1.24-3.37 2-7.21 1-10.75-.78-3-3.3-5.65-6.61-5a4.59 4.59 0 0 0 -3.27 2.71c-.49 1-.81 3-2.05 3.37l1.49 1.14q-.27-4.35-.84-8.67a50.49 50.49 0 0 0 -1.56-8.45c-1.11-3.49-6.14-3.71-7.06 0a1 1 0 0 0 1.94.54z"/><path d="m464.39 191.64a8.77 8.77 0 0 1 1.29-.82l.37-.2s.2 0 .14 0 .11.08.08 0c.56.55.63 1.9.77 2.69a52.1 52.1 0 0 1 .85 8.08c0 1.7 2.76 1.68 2.63 0a59.85 59.85 0 0 0 -1.52-10.28c-.33-1.28-1-2.7-2.35-3.09a2.78 2.78 0 0 0 -2.45.45 3.77 3.77 0 0 0 -1.3 2c-.22.78.75 1.69 1.48 1.14z"/><path d="m457.75 193.9a14.62 14.62 0 0 1 1.74-1.16 1.25 1.25 0 0 1 1.25-.2c.73.43.77 1.69.77 2.44a39.83 39.83 0 0 1 -.41 4.62q-.28 2.75-.61 5.5a1.31 1.31 0 0 0 1.31 1.31 1.34 1.34 0 0 0 1.32-1.31c.17-2.3.37-4.59.57-6.88a15.23 15.23 0 0 0 0-5.13 4.08 4.08 0 0 0 -3-3.2 3.91 3.91 0 0 0 -2.83.53 4.83 4.83 0 0 0 -1.82 2.5 1 1 0 0 0 .46 1.14 1.08 1.08 0 0 0 1.23-.16z"/><path d="m451 238.39a5.62 5.62 0 0 1 -1.14-2.56c-.29-1-.6-2-.87-3-.52-1.93-1.06-3.86-1.45-5.82a48.64 48.64 0 0 1 -.93-12 53.06 53.06 0 0 1 1.94-11.94 24.06 24.06 0 0 1 1.84-4.94 8.87 8.87 0 0 1 3.28-3.38c-.21.13.62-.19.36-.34.08.05 0 .56 0 .65 0 .66-.07 1.32-.11 2-.07 1.24-.15 2.48-.23 3.72l-.47 7.68c-.1 1.68 2.55 1.69 2.63 0l.4-8.18c.06-1.32.13-2.64.2-4a5.82 5.82 0 0 0 -.28-3.13c-1.05-1.88-3.46-.9-4.81 0a11.21 11.21 0 0 0 -3.51 4.49 43.66 43.66 0 0 0 -3.33 13.36 62.26 62.26 0 0 0 .13 14.63 42.5 42.5 0 0 0 1.57 7.74c.74 2.31 1.52 5.09 3.53 6.61.94.7 2-.79 1.22-1.59z"/><path d="m345.12 197.09a65.77 65.77 0 0 0 1.39 14.2c.9 4.32 2 9 4.17 12.87a13 13 0 0 0 4.84 5 18.84 18.84 0 0 0 6.9 1.94c4.87.65 9.73 1.25 14.62 1.63 9.57.73 19.18 1.16 28.77 1.11 4.75 0 9.51-.19 14.26-.42 4.5-.21 9.5-.06 13.84-1.41a14.57 14.57 0 0 0 7.39-5 20.18 20.18 0 0 0 3.39-7.25 51.13 51.13 0 0 0 1.42-8.44c.27-2.93.52-6.23-.53-9-.84-2.24-2.79-4.21-5.38-4.1-2.32.11-4.89 1.64-5.37 4.1a17.35 17.35 0 0 0 -.4 4.07v3.3s-.14 2-.25 3.05.16-.86-.05.3c-.11.62-.21 1.24-.34 1.86-.19.9-.4 1.8-.66 2.69-.11.37-.23.74-.37 1.11a3.5 3.5 0 0 0 -.2.54c.23-1.18.28-.64 0-.17s-.41.65-.58 1c-.26.53.29-.38.35-.42a4.74 4.74 0 0 0 -.5.57c-.14.13-.29.25-.42.39-.42.44.36-.33.42-.32s-.41.25-.49.3c-.78.45-.35.08.18 0-.8.13-1.61.53-2.42.69-.22 0-1.51.24-.59.1s.16 0 0 0l-1 .09c-2.16.18-4.32.32-6.48.45q-6.51.39-13 .56c-8.85.22-17.7.28-26.56 0-4.41-.16-8.83-.39-13.25-.61-2.13-.11-4.25-.25-6.38-.4-.94-.07.57.15-.36 0-.41-.08-.8-.18-1.2-.28-.81-.2-.24-.06 0 0-.18-.09-.36-.18-.53-.28l-.47-.29c.32.18.44.39.07 0-.21-.21-1-1.22-.5-.46-.29-.42-.57-.83-.82-1.27s-.42-.78-.61-1.18l-.24-.51c-.36-.76.1.31-.07-.17-.83-2.22-1.66-4.41-2.34-6.68a100.35 100.35 0 0 1 -3.05-14c-.23-1.63-2.2-2.62-3.67-2.4a3.35 3.35 0 0 0 -2.9 3.28z"/><path d="m494.11 364.34q3.61-4.27 6.86-8.86 1.57-2.24 3.06-4.54a32.29 32.29 0 0 0 2.87-5 1.16 1.16 0 0 0 -.67-1.38 1.19 1.19 0 0 0 -1.46.48c-1 1.41-1.81 3.07-2.7 4.58s-1.88 3.12-2.88 4.65c-2 3-4.08 6-6.31 8.84-.68.87.5 2.11 1.23 1.24z"/><path d="m382.42 220.43a7.4 7.4 0 0 0 2.2 7.33 4.46 4.46 0 0 0 4.13 1.43 1.93 1.93 0 0 0 1-.58 2.62 2.62 0 0 0 .23-2.4 12.65 12.65 0 0 0 -2.57-4.84 54.64 54.64 0 0 0 4 4.58 4.27 4.27 0 0 0 2.13 1.41c1.67.33 3.15-1.41 3.24-3.11a9 9 0 0 0 -1.64-4.75 21 21 0 0 0 3.89 5.79 3.68 3.68 0 0 0 1.68 1.16c1.77.42 3.18-1.74 3.05-3.55s-1.15-3.45-1.49-5.24a22 22 0 0 0 3.26 6.08c.84 1.11 2.22 2.25 3.49 1.65a3 3 0 0 0 1.34-2.34 12.81 12.81 0 0 0 -.91-7.21" fill="#fff"/><path d="m400.81 241a9 9 0 0 1 6.88-8.39 13.63 13.63 0 0 1 -2.8-4.55c-.62-1.67-.81-3.81.5-5s3.45-.87 5.2-.39c2.76.75 5.84 1.85 7 4.48a8.58 8.58 0 0 1 .48 3.7c-.16 4.13-1.23 8.44-4.12 11.4" fill="#fff"/><path d="m401.69 241.25a11.25 11.25 0 0 1 2-4.7 8 8 0 0 1 4.31-2.65 1.34 1.34 0 0 0 .58-2.22 12.08 12.08 0 0 1 -2.51-4.22c-.33-1-.68-2.61.27-3.43s2.74-.3 3.83 0a15.94 15.94 0 0 1 3.74 1.42 4.65 4.65 0 0 1 2.4 2.73 12.46 12.46 0 0 1 0 4.83 15.51 15.51 0 0 1 -3.42 8.25 1.38 1.38 0 0 0 1.95 2 15.47 15.47 0 0 0 4.22-8.4c.58-3 1-6.9-.94-9.53-1.7-2.29-4.53-3.3-7.19-4-2.87-.75-6.55-.79-7.67 2.58s1.25 7.3 3.45 9.7l.59-2.22c-4.08 1-8.27 5.43-7.4 9.91a.92.92 0 0 0 1.75 0z"/><path d="m410.28 233.27-.07-.06.18.14a6.25 6.25 0 0 1 -1.12-1.12l.16.21a6.36 6.36 0 0 1 -.46-.69 1.16 1.16 0 0 0 -.67-.52 1.22 1.22 0 0 0 -.6 0 .81.81 0 0 0 -.39.2 1 1 0 0 0 -.42.74.86.86 0 0 0 0 .45 1.16 1.16 0 0 0 .29.5 8.1 8.1 0 0 0 1.12 1 6.68 6.68 0 0 0 1.09.65.92.92 0 0 0 .67.08.86.86 0 0 0 .6-1.06l-.09-.2a.77.77 0 0 0 -.31-.31z"/><path d="m394.76 220.11a30.86 30.86 0 0 0 2.11 5.24 11.71 11.71 0 0 0 3.61 4.4 1.13 1.13 0 0 0 1.37-1.77 24 24 0 0 1 -1.82-1.82 15.85 15.85 0 0 1 -1.36-2c-.86-1.51-1.57-3.13-2.28-4.71-.42-.92-1.94-.27-1.63.68z"/><path d="m402 218.45c.26.79.52 1.58.8 2.37.14.39.27.77.42 1.16l.21.57a2.07 2.07 0 0 0 .47.89 1 1 0 0 0 1.75-.72 3.78 3.78 0 0 0 -.54-1.49c-.17-.38-.34-.75-.5-1.13-.08-.18-.17-.37-.25-.56a2.44 2.44 0 0 0 -.1-.24c.08.18-.06-.15-.07-.18-.16-.38-.32-.76-.47-1.15a.89.89 0 1 0 -1.72.48z"/><path d="m387.43 221.54a17.14 17.14 0 0 0 1.74 5 15 15 0 0 0 1.5 2.26 8.25 8.25 0 0 0 1.93 2 1.06 1.06 0 0 0 1.28-.17 1 1 0 0 0 .17-1.28c-.51-.69-1.16-1.26-1.7-1.92a17.57 17.57 0 0 1 -1.34-1.94 15.28 15.28 0 0 1 -1.84-4.42.9.9 0 1 0 -1.74.48z"/><g fill="#18c4ff"><path d="m254.67 136.35c4.49.77 5.61 6.49 6.36 10.2a79.87 79.87 0 0 1 1.39 16.84c-.17 11.4-2.35 22.65-4.77 33.76a58.17 58.17 0 0 1 -2 8c-.67 1.78-1.83 3.95-3.95 4.09-1.62.11-1.63 2.64 0 2.52 4.7-.33 6.41-5.31 7.28-9.24 1.4-6.25 2.75-12.51 3.81-18.83 2-12.22 3-24.76.48-37-.94-4.58-2.56-11.37-8.11-12.22-1.25-.2-1.8 1.7-.53 1.92z"/><path d="m24.85 25a114.76 114.76 0 0 0 13.35 44.58 114.79 114.79 0 0 0 30 35.81c12.46 9.8 28.79 18.65 45 13.66 6.8-2.08 13.12-6.51 16.35-13 3.34-6.7 3-14.49.29-21.35a42.48 42.48 0 0 0 -13.71-18c-3.33-2.53-7.34-4.52-11.63-3.75a12.62 12.62 0 0 0 -7.9 5.68c-4.33 6.42-4.6 15.1-3.15 22.43 1.6 8.19 5.63 15.79 10.49 22.5a104.29 104.29 0 0 0 17.39 18.66c6.11 5.11 13.4 9.46 21.56 9.84 6.76.32 14.05-2.07 18.3-7.55 5.12-6.6 4.23-15.71 1.86-23.21-1.9-6-6.86-14-14.33-12s-9.2 11.51-8.51 18c.86 8.07 5 15.47 10.57 21.25 6 6.17 13.67 10.48 21.49 13.84 4 1.71 8 3.21 12.06 4.76 1.63.62 2.34-2 .72-2.62-14.41-5.5-30.36-11.87-38.26-26.06-3.37-6-5.29-13.85-2.8-20.57 1-2.76 3.12-5.63 6.26-6s5.64 1.91 7.27 4.31a27.38 27.38 0 0 1 3.78 9.59 25.23 25.23 0 0 1 .25 11.59c-1.66 6.55-7.33 10.47-13.75 11.59-7.05 1.22-13.93-1.33-19.75-5.19-6.47-4.29-12.14-10.07-17.18-15.94-9.59-11.14-18.35-26.32-14.66-41.56a17 17 0 0 1 4.44-8.29 8.57 8.57 0 0 1 9.35-1.83c3.49 1.34 6.52 4.07 9.09 6.73a40.44 40.44 0 0 1 6.37 8.57c3.25 5.88 5 12.9 3.3 19.54s-6.72 11.6-12.83 14.41c-14.5 6.67-30.36-.28-42.4-8.8a111.62 111.62 0 0 1 -29.42-31.1 113.92 113.92 0 0 1 -15.91-40.07 105 105 0 0 1 -1.43-10.45c-.11-1.22-2-1.23-1.92 0z"/><path d="m36.44 165.88a219 219 0 0 0 41.71 20.49 218.71 218.71 0 0 0 45.28 11.26 218.63 218.63 0 0 0 26.2 2 1.07 1.07 0 0 0 0-2.13 215.49 215.49 0 0 1 -45.81-5.61 218.08 218.08 0 0 1 -43.63-15.16 217.18 217.18 0 0 1 -22.79-12.48c-1-.64-2 1-1 1.63z"/><path d="m65.67 220.24a124 124 0 0 0 68 10.64 122.06 122.06 0 0 0 19-4 1 1 0 0 0 -.52-1.89 123.65 123.65 0 0 1 -67.42.33 119.55 119.55 0 0 1 -18.14-6.69c-1.09-.51-2.05 1.12-1 1.63z"/><path d="m221.55 222.38c-20.82 6.62-41.94 13.69-60.55 25.42-17.28 10.91-32 26.37-39.23 45.77a62.52 62.52 0 0 0 -3.75 29c1.1 9.1 4.63 18.62 12.08 24.41 7.28 5.65 16.9 5.95 25.11 2.18s16.34-13 14.63-22.71c-1.4-7.9-9.29-12.07-16.54-13.36-8.77-1.56-17.8.4-26 3.57-17.63 6.79-33 20.81-40.1 38.49-3.64 9.15-4.2 20.54 3.8 27.55 6.6 5.73 16.11 6.91 24.52 6.36 7.86-.51 17.24-3 22-9.85a11.93 11.93 0 0 0 1.05-11.53c-1.87-4.24-5.94-7.19-10.22-8.68-9.82-3.41-20.55.4-28.7 6.08s-14.76 13.43-19.94 21.81a88.74 88.74 0 0 0 -12.71 55.47 83.3 83.3 0 0 0 2.81 13.81 1.44 1.44 0 0 0 2.77-.76c-4.88-17.28-3.48-36.33 2.93-53a82.08 82.08 0 0 1 13.43-23c6-7.19 13.43-13.81 22.42-16.91a25.52 25.52 0 0 1 14-1.08c4 .91 8.07 3.17 10.1 6.91a8.92 8.92 0 0 1 -1 9.82c-2.29 2.9-5.81 4.74-9.23 5.93a40.81 40.81 0 0 1 -23.55.72 20.77 20.77 0 0 1 -9.84-5.6 16.9 16.9 0 0 1 -4.2-12.2c.28-9.23 5.44-18.27 11-25.39a69.51 69.51 0 0 1 19.8-17.3 64.44 64.44 0 0 1 24.37-8.51c6.79-.82 15.21.14 20.48 4.94a11.26 11.26 0 0 1 3.76 9.42c-.4 4.58-3.25 8.86-6.54 11.93-5.88 5.49-14.71 8.25-22.53 5.8-8.42-2.64-13.49-10.84-15.74-18.92a54.13 54.13 0 0 1 0-26.82c4.34-18.23 16.26-34.21 30.87-45.64 16.21-12.68 35.55-20.62 54.79-27.47 4.71-1.68 9.45-3.3 14.17-5 1.05-.37.62-2-.46-1.69z"/><path d="m191.23 182.43q.89 7.59 1.83 15.17a1 1 0 1 0 2-.27q-1-7.58-2.09-15.14c-.14-1-1.87-.76-1.75.24z"/><path d="m204.48 172a77.16 77.16 0 0 0 3.05 29.67c.4 1.3 2.47.74 2.05-.56a75.54 75.54 0 0 1 -3.29-29.11c.1-1.16-1.7-1.15-1.81 0z"/><path d="m172.61 53.61a193.09 193.09 0 0 0 18.65 47.73q3.54 6.42 7.59 12.55c.47.71 1.79.72 2-.26l5.89-30.83-2.08.28c7.32 12.94 7.87 28.35 13.92 41.8a42.54 42.54 0 0 0 6.42 10.25 1.26 1.26 0 0 0 2.12-.88q.87-20.91-.23-41.83l-2.52.34a218 218 0 0 0 16.06 48.87q3.09 6.63 6.62 13.05c.81 1.47 3.06.16 2.25-1.31a215.58 215.58 0 0 1 -19.14-47.28c-1.26-4.63-2.36-9.31-3.32-14a1.28 1.28 0 0 0 -2.51.34q1.09 20.89.31 41.83l2.11-.88c-9.58-11.15-10.77-26.68-15.22-40.15a61.78 61.78 0 0 0 -4.9-11.29 1.15 1.15 0 0 0 -2.08.27l-5.78 30.86 2-.26a191 191 0 0 1 -22.3-45.81c-1.51-4.58-2.83-9.21-4-13.89-.3-1.21-2.17-.69-1.87.52z"/></g><g fill="#fff"><path d="m425.11 265.83a10.43 10.43 0 0 0 9.73 1.17 14.11 14.11 0 0 0 7.43-6.56 18.17 18.17 0 0 0 2.52-10.31c-.37-3.59-3.08-6.81-6.21-8.51a1.17 1.17 0 0 0 -1.41 1.84c1.06 1 2.36 1.79 3.38 2.89a6.89 6.89 0 0 1 1.91 4.16 16 16 0 0 1 -2.07 8.63 12.29 12.29 0 0 1 -6.11 5.85 9.22 9.22 0 0 1 -8.3-.65c-1-.61-1.72.83-.87 1.49z"/><path d="m472.62 269c-6.78.21-11.87 5.36-14.16 11.41-1.19 3.13-2.12 6.91-1 10.19a15.56 15.56 0 0 0 6.05 7.45 18.09 18.09 0 0 0 17.5 2 15.9 15.9 0 0 0 9.54-13.85 30.25 30.25 0 0 0 -.55-6.2 16.39 16.39 0 0 0 -1.74-5.42c-1.62-2.83-5.06-4.92-8.32-3.65-1.45.56-.86 2.92.66 2.38 2.58-.92 4.84 1 5.86 3.27a22.63 22.63 0 0 1 1.58 8.73 13.3 13.3 0 0 1 -7 11.94 15.11 15.11 0 0 1 -14.56-.4 15.6 15.6 0 0 1 -5.75-5.22c-1.68-2.71-1.33-5.71-.5-8.66 1.66-5.89 5.89-11.7 12.47-12.13 1.18-.07 1.21-1.89 0-1.86z"/><path d="m413.67 325.14a6.73 6.73 0 0 1 6.8-5.69c3.52.05 6.58 2.62 8.24 5.57a13.73 13.73 0 0 1 -5.53 18.64c-1.42.77-.15 3 1.27 2.17a16.23 16.23 0 0 0 8-17.74c-1.42-6.28-7.76-12.76-14.7-10.45-3.25 1.08-6 3.95-6 7.5 0 1.23 1.73 1.16 1.86 0z"/><path d="m460.74 358.93c-4.05-.47-9.26-2.55-11.35-6.31-1.11-2-.84-4.39-.32-6.51a17.45 17.45 0 0 1 2.66-6.22 10.74 10.74 0 0 1 10-4.14 7.22 7.22 0 0 1 5.35 3.3 21.38 21.38 0 0 1 2.54 6.31c1.05 4.55-.75 9.79-6 10.05-1.32.07-1.75 2.13-.33 2.43 5.25 1.09 9.08-4.52 9.29-9.13a19.31 19.31 0 0 0 -2.11-8.77c-1.14-2.52-2.61-4.69-5.22-5.84a13.27 13.27 0 0 0 -13.78 2.3 15 15 0 0 0 -4.11 6.63 16.28 16.28 0 0 0 -.94 8.42c1.3 6 8.82 9 14.3 9.42 1.26.09 1.22-1.8 0-1.94z"/><path d="m474.78 239.47c1.94 4.31 7.1 7.23 11.8 6.21 1.06-.22.84-2-.25-1.9a10.46 10.46 0 0 1 -5.83-1 9.76 9.76 0 0 1 -4.23-4.18.86.86 0 0 0 -1.18-.31.88.88 0 0 0 -.31 1.18z"/><path d="m454.35 413.6c.6-2.5 3-3.94 5.4-4.4a11.46 11.46 0 0 1 12.7 8.17 12 12 0 0 1 .4 4.18 24.65 24.65 0 0 1 -1 4.06 1.19 1.19 0 0 0 2.16.91c1.47-2.09 1.57-5.44 1.23-7.86a13.46 13.46 0 0 0 -3.39-7.3c-3.39-3.72-9.25-5.66-14.08-3.84a7.75 7.75 0 0 0 -5.24 5.57c-.22 1.19 1.56 1.72 1.85.51z"/><path d="m501.7 374.82c-11.52-3.5-20.49 15.08-11 22.13a16.25 16.25 0 0 0 7.91 2.79c3.13.38 6.85.86 9.9-.1 5.39-1.69 9-8.26 9.57-13.57.65-6-3.14-12.11-9.37-12.94-1.76-.23-1.74 2.54 0 2.77 4.14.54 6.72 4.85 6.71 8.75 0 4.3-2.6 9.66-6.43 11.84-2.28 1.3-5.11.93-7.63.78a20.19 20.19 0 0 1 -7.22-1.39 8.13 8.13 0 0 1 -4.4-4.3 11.07 11.07 0 0 1 .13-6.92c1.43-4.93 5.8-9.65 11.39-8.2a.85.85 0 0 0 .45-1.64z"/><path d="m546.69 418.24c-.28 0-.06 0 0 0a.66.66 0 0 1 -.17-.23 1.89 1.89 0 0 1 -.25-.7 5.57 5.57 0 0 1 -.09-1.47 6.85 6.85 0 0 1 .91-3 7 7 0 0 1 5-3.57 1.18 1.18 0 0 0 .82-1.45 1.2 1.2 0 0 0 -1.45-.83 9.13 9.13 0 0 0 -6.71 5.45 8.8 8.8 0 0 0 -.74 4.44c.18 1.51.94 3.65 2.89 3.16a.94.94 0 0 0 -.25-1.83z"/><path d="m521.73 324.42a12.08 12.08 0 0 0 14.24.8c5.22-3.47 6.78-11.27 5.37-17.06a10.58 10.58 0 0 0 -6.37-7.59c-1.54-.57-2.2 1.89-.68 2.46 6.67 2.47 6.16 12.76 3 17.76-2.93 4.66-10 5.8-14.33 2.39-.87-.68-2.11.5-1.24 1.24z"/><path d="m547.57 360c-1-5 2.29-10.28 5.53-13.85s8.17-6.32 13.16-5c4.36 1.12 7.23 5.46 7.35 9.84.14 4.75-2.66 9.32-6.48 12-2.26 1.59-5 2.63-7.82 1.95s-4.88-2.52-7-4.23c-1.21-1-3 .7-1.74 1.74a22.28 22.28 0 0 0 7.27 4.7 11.22 11.22 0 0 0 8.39-.75 17.71 17.71 0 0 0 9.77-13.4c.66-5.19-1.83-10.89-6.6-13.33-5.36-2.73-11.68-.75-16 3a27 27 0 0 0 -6.07 8.06 14.62 14.62 0 0 0 -1.67 9.72c.26 1.24 2.14.72 1.89-.52z"/><path d="m571.36 275.21a17.53 17.53 0 0 0 -9.9 12.82 18.25 18.25 0 0 0 .68 8.92c.94 2.74 2.59 5.7 5.06 7.34s5.84 1.32 8.59.54a19.6 19.6 0 0 0 7.07-3.75c4.1-3.37 7-8.64 6.8-14a10 10 0 0 0 -4-8.14 9.06 9.06 0 0 0 -8.73-.66c-1.46.65-.19 2.8 1.26 2.16a6.44 6.44 0 0 1 6.35.79 7.6 7.6 0 0 1 2.64 6 15.74 15.74 0 0 1 -5.5 11.61 16.64 16.64 0 0 1 -5.48 3.28c-2.16.77-5 1.46-7.19.38s-3.64-3.82-4.47-6a15.66 15.66 0 0 1 7.76-19.79c1-.55.12-2-.89-1.51z"/><path d="m576.5 249.85c8.37-.87 15.4 4.9 19.42 11.74a52.87 52.87 0 0 1 4.84 11.81c1.3 4.37 2.64 8.76 2.6 13.35 0 1.5 2.13 1.43 2.28 0 .42-3.77-.87-7.68-1.86-11.27a81.39 81.39 0 0 0 -3.48-10.29c-2.69-6.3-6.95-12.06-13.21-15.18a18.61 18.61 0 0 0 -10.59-2c-1.13.14-1.16 1.93 0 1.81z"/><path d="m605.69 296.51.48-.47a.74.74 0 0 0 .22-.34.87.87 0 0 0 .1-.42.8.8 0 0 0 -.1-.41.72.72 0 0 0 -.22-.35l-.22-.17a1.11 1.11 0 0 0 -.54-.14h-.29a1.18 1.18 0 0 0 -.47.28l-.46.48a.72.72 0 0 0 -.22.35.8.8 0 0 0 -.1.41.79.79 0 0 0 .1.4.72.72 0 0 0 .22.35l.21.16a1 1 0 0 0 .54.15h.28a1.11 1.11 0 0 0 .47-.27z"/><path d="m571.4 229.1a10.11 10.11 0 0 1 -8 13.72c-1.32.21-.77 2.26.56 2a12.27 12.27 0 0 0 8.23-5.55 12.15 12.15 0 0 0 1-10.66c-.4-1-2.11-.61-1.71.47z"/><path d="m629.34 239.48c-6.1-1.39-11.77 5-13.89 10.08-2.58 6.15-.41 13 4.5 17.34a23.46 23.46 0 0 0 8.43 4.64c2.84.91 6.1 1.37 9 .28 3-1.15 4.56-3.86 6-6.56 1.57-2.92 2.85-6 2.37-9.35-.51-3.62-2.67-6.71-4.91-9.5-2-2.51-4.56-5.78-8.2-4.9-1.47.35-.83 2.48.61 2.22 2.43-.43 4.56 2.82 5.85 4.42a20 20 0 0 1 4 6.86c.77 2.77.06 5.37-1.2 7.87-1.1 2.18-2.28 4.93-4.44 6.23-4.23 2.55-10.61-.23-14.22-2.71-4.33-3-7.44-8.25-6.41-13.61a15.93 15.93 0 0 1 4-7.51c2-2.22 4.85-4.73 8.1-4.13 1.08.19 1.56-1.42.46-1.67z"/><path d="m631.23 305.27a14.59 14.59 0 0 0 -10.06 10.73 9.2 9.2 0 0 0 1.49 7.83 14.51 14.51 0 0 0 6.41 4.17c5.69 2.19 12.17 3.61 17.27-.64a21.69 21.69 0 0 0 5.18-6.79 13.39 13.39 0 0 0 1.67-8.27c-1.1-6.38-8.16-7.81-13.54-8.38-1.63-.17-1.62 2.39 0 2.55 3.63.38 8.59 1 10.5 4.59 2.23 4.25-1.12 9.78-3.9 12.93a10.17 10.17 0 0 1 -6.17 3.66 17.9 17.9 0 0 1 -7.73-1.05c-4.15-1.28-9.23-3.15-9.18-8.31a12.43 12.43 0 0 1 8.53-11.29.88.88 0 0 0 -.47-1.69z"/><path d="m667.47 264.64c-2.82 6-6 13.59-1.83 19.8a12.84 12.84 0 0 0 7.55 5 37.82 37.82 0 0 0 4.73.86c1.47.2 3.09.5 4-.92.65-1-.61-2.12-1.56-1.56s-2.45.05-3.45-.1a29.6 29.6 0 0 1 -3.82-.84 9.81 9.81 0 0 1 -6-4.53c-2.89-5.36-.27-11.71 1.9-16.8.44-1-1-2-1.53-.9z"/><path d="m687.93 321.11a22.11 22.11 0 0 0 -17.26 5.58 8.74 8.74 0 0 0 -2.8 8.32 17.24 17.24 0 0 0 3.93 7.68 19.08 19.08 0 0 0 15.56 6.71c5.95-.35 13.16-3.46 14.07-10 .79-5.68-2.6-12.24-8.44-13.64a1.3 1.3 0 0 0 -.7 2.51 9.76 9.76 0 0 1 6.58 9.6 7.27 7.27 0 0 1 -3.73 6.36 16.69 16.69 0 0 1 -7.17 2.47 16.6 16.6 0 0 1 -17-10.31c-1.09-2.72-1.07-5.31 1-7.56 4-4.35 10.26-6.32 16-5.94 1.13.08 1.1-1.63 0-1.75z"/><path d="m615.33 358.91a21 21 0 0 0 -11.33 15.49 17.2 17.2 0 0 0 7.7 16.55c11.86 7.56 29.4-4.58 28.24-18.07-.6-6.91-5.69-13.6-12.79-14.65-1.66-.25-2.36 2.3-.7 2.53 5.43.76 9.47 5.22 10.68 10.44 1.27 5.56-1.36 11.12-5.49 14.78-4.41 3.92-11.4 6.3-17.05 3.79a14.85 14.85 0 0 1 -8.44-13.16c-.08-6.77 4.35-12.95 10.08-16.21a.86.86 0 0 0 -.87-1.49z"/><path d="m570.78 394.84c6.63-.71 9.84 8 9.76 13.36-.09 5.78-6.24 8.17-8.93 12.6-.87 1.44 1.3 2.67 2.22 1.3 1.75-2.58 4.32-4.37 6.31-6.74a11.19 11.19 0 0 0 2.63-9.1c-.83-6.18-4.73-14.44-12.23-13.21-1 .16-.79 1.91.24 1.79z"/><path d="m616 450.63c-5.18 1.82-11.24.84-15.12-3.21a12.51 12.51 0 0 1 -2.05-14.67 27 27 0 0 1 5.38-6.52c2-1.91 4.29-4 7.17-4.33 5.49-.72 11.38 4 13.62 8.71a10.36 10.36 0 0 1 -5.38 13.77c-1.54.62-.87 3.13.69 2.51a13.08 13.08 0 0 0 8.09-14c-1-6.35-7.35-12.12-13.54-13.36a11.51 11.51 0 0 0 -9.41 2.3 36.45 36.45 0 0 0 -7.25 7.27c-4 5.35-4.59 12.35-.74 18 4.16 6.08 12.31 8.08 19.08 5.51 1.2-.45.7-2.38-.54-1.94z"/><path d="m677 379.69a36.27 36.27 0 0 0 -9.31 6.9c-2.56 2.63-5.37 5.92-5.87 9.69s1.69 7.65 4 10.56a23.75 23.75 0 0 0 8.08 6.72 17.41 17.41 0 0 0 9.92 1.8c3.92-.53 7.32-2.62 10.4-5 5.52-4.24 12.3-10.05 10.24-17.87-1.06-4.06-4.12-7.43-7.11-10.22-3.13-2.94-7-5.52-11.52-4.58-1.64.34-.94 2.85.69 2.51 3.39-.72 6.49 1.59 8.84 3.76s4.77 4.69 6.07 7.68c2.87 6.61-2.74 11.85-7.45 15.64-2.65 2.13-5.49 4.27-8.82 5.19a13.92 13.92 0 0 1 -8.6-.52 20.25 20.25 0 0 1 -7.4-5.06c-2.15-2.26-4.28-5.25-4.92-8.35-.82-3.94 2.33-7.67 4.8-10.36a34.77 34.77 0 0 1 8.91-6.95c1-.57.12-2.1-.91-1.56z"/><path d="m738.71 350.71c-1.89 2.47-2.18 5.69-2.47 8.69-.33 3.44.25 6.4 2.56 9.05a23.56 23.56 0 0 0 17 7.6 1.28 1.28 0 0 0 0-2.55 21.77 21.77 0 0 1 -14.69-6.22 8.89 8.89 0 0 1 -2.22-3.26 10.92 10.92 0 0 1 -.32-4.41c.2-2.7.39-5.57 2-7.82.83-1.12-1-2.17-1.85-1.08z"/><path d="m663.11 444.1c-6.42 3.9-13.11 8.21-16.11 15.47a15.68 15.68 0 0 0 -.66 10.48 17 17 0 0 0 6.59 8.33 25.86 25.86 0 0 0 10.62 4.73 16.6 16.6 0 0 0 11-2.11c6.16-3.51 12.14-10.08 13.18-17.31a14.23 14.23 0 0 0 -2.4-10.33c-2.6-3.53-6.55-4.56-10.72-5-1.36-.14-1.68 2.15-.33 2.4 3.15.57 6.42 1.06 8.59 3.64a11.33 11.33 0 0 1 2.42 7.73c-.26 6.4-5.43 12.2-10.46 15.65a15 15 0 0 1 -9.44 3 21 21 0 0 1 -9.39-3.4 17.66 17.66 0 0 1 -6.66-6.49 12.24 12.24 0 0 1 -.61-9.19c2.19-7.46 9.13-12 15.3-15.95 1-.66.09-2.27-.95-1.63z"/><path d="m741.23 406.6a25.91 25.91 0 0 0 -15.56 14 22.14 22.14 0 0 0 -2.09 11c.43 4.23 3.19 7.18 7 8.86 4 1.78 8.47 2.17 12.81 2.35 4.17.18 8.67-.07 12.3-2.35 5.77-3.6 8.34-11.4 6.25-17.81-2.58-7.9-11.31-12.4-19.3-11.21-1.64.24-1.27 3.12.4 2.92 6-.73 12.29 1.83 15.26 7.24a12.93 12.93 0 0 1 -2.8 15.43c-2.59 2.29-6.14 2.91-9.49 3a43.18 43.18 0 0 1 -11.47-1.03c-3.28-.85-7.06-2.6-8-6.16-.85-3.08-.09-6.73.91-9.69a23.67 23.67 0 0 1 14.33-14.61c1.19-.41.7-2.28-.52-1.89z"/><path d="m583.61 486.9c-3.48.39-6.06 2.7-7.93 5.53a21.27 21.27 0 0 0 -3.68 10.85c-.16 7.94 7.09 13.25 14 15.38 7.22 2.21 15.3 1.17 21.23-3.68 5.27-4.32 9-12.17 6.82-19-1.35-4.23-5.73-6.53-9.59-8.1-4-1.63-8.63-1.79-12.09 1.13-1.1.94.38 2.89 1.57 2 2.72-2 6.14-1.81 9.18-.69a27.37 27.37 0 0 1 4.27 2.12 8.65 8.65 0 0 1 3.67 3.44c1.3 2.67.92 6.12 0 8.86a17.85 17.85 0 0 1 -4.68 7.33 19.51 19.51 0 0 1 -17.16 4.65c-5.69-1.09-12.88-4.57-14.5-10.67-1-3.64.22-7.67 1.85-10.95 1.48-3 3.71-5.9 7.21-6.4 1-.15.8-2-.24-1.83z"/><path d="m557.47 552.29a15.32 15.32 0 0 1 7.39 15.49c-1.1 6.71-6.34 10.38-11.4 14.18-1.3 1-.12 3.18 1.32 2.24 6-3.91 11.55-9 12.44-16.51a17.45 17.45 0 0 0 -8.76-17.09 1 1 0 0 0 -1 1.69z"/><path d="m637.62 577.11a18 18 0 0 1 -15.14-30.11c5.09-5.65 13.34-10.26 21.16-9.06a16.26 16.26 0 0 1 13.64 14.65 16.76 16.76 0 0 1 -3.89 12c-2.75 3.33-6.35 5.81-9.89 8.23-1.47 1-.07 3.43 1.41 2.41 7.14-4.92 14.38-10.6 15.07-19.93a18.94 18.94 0 0 0 -12.76-19.13c-8.59-3-17.92 1.17-24.35 6.88a22.14 22.14 0 0 0 -7 10.71 21 21 0 0 0 .46 12.27 20.43 20.43 0 0 0 21.24 13.22c1.29-.14 1.32-2.17 0-2z"/><path d="m713.26 493.93c-3.36.6-6 2.89-8.16 5.41s-4.69 5.54-6 8.82c-2.72 6.76 1.85 13.2 7.87 16.15a24.7 24.7 0 0 0 34.41-15.07 12.11 12.11 0 0 0 .28-6.67 21.47 21.47 0 0 0 -2.88-5.69c-1.94-3.05-4.4-6.32-8.19-7-1.81-.32-2.6 2.41-.76 2.79 2.84.59 4.62 2.91 6.12 5.22 1.79 2.74 3.63 5.57 3 9-1 5.69-5 10.88-9.9 13.87a22.14 22.14 0 0 1 -18.36 2.08c-4.92-1.61-10.56-6-9.71-11.8.49-3.45 3-6.46 5-9.12s4.4-5.24 7.8-5.93c1.34-.27.76-2.28-.57-2.05z"/><path d="m795.28 434.08c-6.74 1.85-9.87 10.24-10 16.59a12.92 12.92 0 0 0 3.49 9.58c2.53 2.48 6.05 3.57 9.47 4.1 3.75.59 7.88 1.07 11.56-.12a13.84 13.84 0 0 0 8-7.32 17.8 17.8 0 0 0 -2.59-19.15 17.49 17.49 0 0 0 -20.75-3.67c-1.67.9-.2 3.31 1.48 2.52a15.11 15.11 0 0 1 15.52 1.71 14.54 14.54 0 0 1 4.54 15.15 12.37 12.37 0 0 1 -4.91 7c-2.93 1.89-6.53 1.75-9.86 1.44a22.42 22.42 0 0 1 -8.35-2 9.19 9.19 0 0 1 -4.91-7 19.53 19.53 0 0 1 1.34-9.7c1.17-3.13 3.23-6.1 6.43-7.36 1.1-.43.7-2.15-.5-1.82z"/><path d="m792.72 493.78c-7 .72-15 3.66-17.17 11.18-1.13 4 .11 8 1.82 11.6a28.1 28.1 0 0 0 6.13 8.68c5.78 5.27 14.1 5.63 20.81 1.89a25.83 25.83 0 0 0 7.89-7.08c2.07-2.72 4.81-6.41 3.92-10a36.54 36.54 0 0 0 -2.72-6.46 19.89 19.89 0 0 0 -3.08-5.37c-3.28-3.52-7.72-1.37-10.85 1.08-1.12.88.33 2.71 1.51 2a14.61 14.61 0 0 1 4.09-2 3.43 3.43 0 0 1 3.86 1.69 29.31 29.31 0 0 1 2.07 4.01c.76 1.63 1.58 3.27 2.19 5a4.68 4.68 0 0 1 -.51 4.27 33 33 0 0 1 -2.5 4 23.31 23.31 0 0 1 -6.57 6.18c-5.33 3.25-12.29 3.69-17.38-.26a22.25 22.25 0 0 1 -5.41-6.56c-1.67-2.9-3.19-6.17-3.18-9.58 0-7.89 8.45-11.35 15.07-12.18 1.27-.16 1.31-2.15 0-2z"/><path d="m864 469.33a20.76 20.76 0 0 0 -1 22.2c1.15 2 3.63 4.67 5.92 2.52 1.24-1.15-.56-2.83-1.82-1.82-.11.1-.95-.67-1-.72a6.39 6.39 0 0 1 -.81-1.12 17.49 17.49 0 0 1 -1.39-2.64 18.47 18.47 0 0 1 -1.36-5.95 19.09 19.09 0 0 1 3-11.58c.63-1-.88-1.8-1.54-.89z"/><path d="m785.33 394.65a8.89 8.89 0 0 0 8.37 9.94 1.05 1.05 0 0 0 0-2.1 6.93 6.93 0 0 1 -6.57-7.6c.12-1-1.66-1.26-1.8-.24z"/><path d="m765.06 597.44a12.83 12.83 0 0 1 15.68-19.17 1.26 1.26 0 0 0 1.55-.88 1.29 1.29 0 0 0 -.88-1.55 15.54 15.54 0 0 0 -14.31 1.42 15 15 0 0 0 -6.61 13.12 15.19 15.19 0 0 0 2.69 8.16c.8 1.14 2.67.07 1.88-1.1z"/><path d="m694.44 620.43a18.11 18.11 0 0 1 4.77-19.31c5-4.51 13.26-6.07 19.35-2.76 3.32 1.81 6.06 5 5.65 9-.19 1.75 2.55 1.74 2.73 0 .9-8.67-9-13.62-16.34-13.33a20 20 0 0 0 -18.32 13.5 20.29 20.29 0 0 0 .16 13.43c.46 1.23 2.44.72 2-.55z"/><path d="m609.21 638c2.54-6.59 8.42-11.4 15-13.52s16-2.26 20.65 3.77a13 13 0 0 1 2.3 11.13 1.28 1.28 0 0 0 2.46.68 14.88 14.88 0 0 0 -1.49-11.51 15.08 15.08 0 0 0 -10-7.21 28 28 0 0 0 -23.13 5.52 24 24 0 0 0 -7.72 10.59c-.44 1.2 1.44 1.69 1.89.53z"/></g></svg>